<mxfile host="app.diagrams.net" modified="2023-06-16T20:54:31.926Z" agent="Mozilla/5.0 (Windows NT 10.0; Win64; x64) AppleWebKit/537.36 (KHTML, like Gecko) Chrome/114.0.0.0 Safari/537.36" etag="eAO3uDEtAfK_izTiO0pz" version="21.4.1" type="github">
  <diagram name="PÃ¡gina-1" id="aO1pB7Bg3boKhZ3RfOcW">
    <mxGraphModel dx="2647" dy="1433" grid="1" gridSize="10" guides="1" tooltips="1" connect="1" arrows="1" fold="1" page="1" pageScale="1" pageWidth="827" pageHeight="1169" math="0" shadow="0">
      <root>
        <mxCell id="0" />
        <mxCell id="1" parent="0" />
        <mxCell id="QlTkq8WYhFlpVvzBfxse-1" value="" style="shape=image;verticalLabelPosition=bottom;labelBackgroundColor=default;verticalAlign=top;aspect=fixed;imageAspect=0;image=data:image/png,iVBORw0KGgoAAAANSUhEUgAAAYcAAAF3CAYAAABOjIdnAAAAAXNSR0IArs4c6QAAAARnQU1BAACxjwv8YQUAAAAJcEhZcwAAFiUAABYlAUlSJPAAABcDSURBVHhe7d19sF1lfS/wJ2+8hCgJYYyYO3QQXxJkYNDJcHunakFgLAVnAPVqoC3aOq3Rev8QKmCho7VIBbx6eQ0oYvACRaXgyGjaoUyl6CAv8qJokIDB8BKTk+Tk7HOSk3OS9Dz7PEFknSD77L2fdfZan8/MnrOflfyTENZ3/X7Py5rWaAztCgDwItPTTwB4gXAAoEA4AFAgHAAoEA4AFAgHAAqEAwAFwgGAAuEAQIFwAKBAOABQIBwAKBAOABQIBwAKhAMABR15n8PKlSvD44+vSiMAyvDGN74pvPvd706j9nQkHM488y/Ct771zTQCoAynnfbe8PWvr0ij9mgrAVAgHAAoEA4AFAgHAAqEAwAFwgGAAuEAQIFwAKBAOABQIBwAKBAOABQIBwAKhAMABcIBgALhAECBcACgQDgAUCAcACgQDgAUdOQd0ueee05YuXJlGgFQhhNOOCFcdNE/p1F7OhIOIyMjYceOHWkEQBlmzJgRZs2alUbt6Ug4AFAtXQ+HWFGMjo6mEQDtmDlzZrNC6Lauh8Pdd/8g3HrrrWkEQDtOOeWU8I53vDONuqfr4XDVVVeGs88+K40AaMcXvnBxWLbsY2nUPZayAlAgHAAoEA4AFAgHAAqEAwAFwgGAAuEAQIFwAKBAOABQIBwAKBAOABQIBwAKhAMABcIBgALhAECBcACgQDgAUCAcACgQDgAUCAcACoQDAAXCAYAC4QBAgXAAoEA4AFAgHAAoEA4AFAgHAAqEAwAFwgGAAuEAQIFwAKBAOABQIBwAKBAOABQIBwAKhAMABcIBgALhAECBcACgQDgAUCAcACgQDgAUCAcACqY1GkO70veuuO+++8K///u/pREA7Tj++BPCkiVL0qh7uh4OAPQebSUACoQDAAWltpUGBwfDaaedGp566sl0BYDoNa95Tbj77nvSKL9Sw2HdunXhuOPeJRwAXmLvvfcO69f3henTy2nwlNpWGhxshB07RtMIgN2Gh4eb98iylBoOAwONMDoqHAAmsmHDhvQtv1LDYWhoUDgA7MGGDX3pW36lhkOjMRhGRkbSCIAXq23l0GgMjFUOO9IIgBfr66ttOJiQBtiTvr6atpXiPgdzDgATq204DAzEtpJwAJhILcNh586dYWhoqPkTgKJazjnEiiFWDgBMbP36moZDnHMAYGL9/f1hx45yVnSWFg5xlVJcrQTAxMp8iC6xcthR6rkhAFNdmQ/RpYVD3Bkdz1YCYGKxcoibhctQ6pxDPFsJgInFh+h4zFAZSg0HlQPAno3POdSsrRR7aeYcAPZsvK1Uw8qhrD80QC8oc+FOaeGwfftI2Lp1KI0AeKnx1Uo1qxw2buxzdAbAyxjvsNRstVKZB0oB9ILxcKhZW6nM198B9IJdu3Y1d0iXcYRGieGwPn0DYE9i5RAriNy0lQCmsLJeiiYcAKaw8dcp16itJBwAfr+y2krTGo2hXel7Vn/0R/8rPPTQQ2lE1S1ZsiQce+y7wowZM9IVJutHP/pRuOuu/0gjqu7oo/9nuPHGm8KCBQvSlTxKC4dFi94U1q5dm0ZU3Z//+V+ESy65NMyePTtdYbI+/enzwpe//KU0oure8pa3hFtvvS0sXLgwXcmjlLZSXJ61adOmNKIO1q17PgwPD6cR7Xj88VXpG3VQqwnpeFS3V4TWS2whWr7cvnXr1oW77/6vNKIOxiekaxIOfX0b0zfq4je/+U347ne/m0ZM1g03rBi7WZRznALlqFXlsGHDhvSNuoitxIsuuig89dRT6QqtWrXqF+GrX/1KGlEXW7duDUNDW9Mon5IqB8tY6ygePXzuuZ8Kzz//fLrCKxWrhSuuuDw899xz6Qp1Eg8qza2kcFA51NXKlSvDlVdeEbZt25au8Ep87WtfCzfddFMp7QXKV8YDtcqBrOI7cS+77P81l2JalPD7xb+jyy+/LJx33rnN9gL1VEYr3pwD2cWAuPDCfxq74Z0Tnnjil835CIriJP7nPveP4bOf/Yy/o5qrTeVQRv+MqSWeFXP99deHD3/4Q+GBBx5IV9nt0UcfDe9976lh+fKrw9CQNybWXW0qh/XrrXdnPCAefPDBcNxxx4a/+7uzw5o1a0o5YGyqiG9GfOaZZ8Kll14STjjh+Obfzfbt29OvUmc1mnOwz4HfipOsV199VfjgB/93+OIXL20+NdfpFbKxZfT00083q4QzzljabCMNDGxJvwrlVA7Zz1aK/9P/4R8eHX72s5+lK/Bbs2bNCgcddFA4+eT3hI997OPh4IMPTr9STc8++2xz78K3v/3t8OtfP+2IESZ02GGHhR//+P40yiN7OMQnore//e3NiUh4OdOnTw/HHnts+MhH/jocccQR4YAD5oXZs/cL06ZNS7+j98QVR/39/WHNml+FFStWhG9+8xZzCvxe8UTW1avzbiDNHg5xA9Txx7/LTllesVhNHHLI68Nb3/rWcPTRRzeDYtGixWH//fdPv2Nqiw9Eq1Y93myXPfTQg81zph555JHmqi14JeL/A319m5oPTLlkD4fVq58IJ530p2Ml9K/TFXjl9tlnn/DqV786zJt3QDjqqKPCMccc0wyMGB5T5V0RsXUa5xB+/ON7w1133RUeeOD+sHHjxmbFYK8Ck7V27bNh7ty5adR92cMhPjW9732nOQaAjoltpgMPPLD5QqEjjjgyLF68OLzhDW8cC5FXhb322nvss1fzE5++Zs6c2fy0+gQWb/hxJVV82o8T6HEVUZwfiD/jRrXYJn3sscfGqoNHwv333+/fNx338MOPhEMPfUMadV/2cPjhD+8Jp5++1HJWuipWETEw4mfu3Hlh/vwDwv77zw1z5swJ++23X/OlQ/Fn/H0xQKJ99tm7uXJo+/aR5s/R0ZHmzX/84LOhZgjET3wXSfzE/TqxIoj/lh1rQbfdeeddzSo5l+zhEM/W+au/+rCX/VCqWG3ECiL+3N2O2l1NxCohhkP87K4Y4k8o0y23fCuceOKJadR92fc5xNMlR0fru9GJqSHe+GOLaHdlED+7K4P4PR4MGNtG8fcIBqaC3C/Lyh4O8X++Mt5qBNDLcu+SLqFyaOjPArRIOABQUOlwiBN7sa2khwvQmkrPOcSKIVYOALSm0pWDcACYnP7+LVmPXMneVhIOAK2LD9c5D2nMXjkMDgoHgFbFLQA5H65LaCt5qTxAq8bvnwNp1H0qB4AekPvhWuUA0ANyP1xnnpDOWxYBVEXlK4e4CQ6A1sQDSytbOWzbNuxNWACTMN55qWjlEF+OEo9KBqA1422liq5W2rBhQ/oGQCvGw6GR7QE7azjkPhsEoCpiKIy/DyfPy9JUDgA9YvxNmnleeSAcAHrE4OBQc2I6B20lgB6R8x38wgGgR8SlrJVsK/X1aSsBTFbcBFfRcFA5AExWXMpauXCIy7CEA8DkVTIc4kTK8PBwGgHQqvF9DhULhw0bVA0A7ahk5WCPA0B7Yvcl7nXIIVs4mG8AaF+ue2nGymF9+gbAZOW6l2YLh40bN6ZvAExWBSsHcw4A7apcOJhzAGhfrpMmMoaDygGgXevXVywc7HMAaF+l2krxzUX9/ZvTCIDJqlQ4xC3fIyN5dvUBVFml5hzilu9c54EAVNnmzZuzvEc6U+WQ7zwQgCobGRkJ/f39adQ9WcJhYEA4AHRKjtZSlnAYGsr3ajuAqssxKZ1pziFOSI+kEQDtyLHXIVM4DIxVDt2fQAGog0pVDlYrAXRGZeYcrFYC6JwKVQ7CAaBTcpxy3fVwiJs14g7pXbt2pSsAtKMSbaVYMQwMDKQRAO2qRFsphkOsHADojLixePv27WnUHVnaSnHOAYDOyPHQrXIA6DFxa0C3H7qnNRpDXZ0pHhjYEq699tqwevXqdAWAdsybNy/87d9+IixYsCBd6byuhwMAvafrbSUAek+plUPc+7Bp0yYb5ABeYsaMGWH+/PlplF+p4bB169awbNlHw9q1a9MVAKL58w8IN998SxrlV2o4bNy4MfzxH78zPPmkyWqAF5sz51Xh+efXpVF+pc45xMph505HeQO8VDywNMe7ovek1HDYtm1rqX94gKkqzsmWuYG45Mphm3AA2IP+/v70Lb/S20rCAWBiW7ZsSd/y01YCmKK2bKlt5aCtBLAn/f0qBwBeosaVQwyHnWkEwIvVds4htpXscwCYmAlpAAosZQWgoOZzDsIBYCJbtgykb/mVFg4xFLZt25ZGALxUf//m9C2/UsMhVg4ATKyW+xzGKwfhALAn8R388QC+MpQWDnEJa1zKCsDERkZGw/DwcBrlVWLlsFNbCeBllDk3q60EMEWNd1jKuU+WPCGtrQSwJ2U+RKscAKaoMh+iS64chAPAnpR5n9RWApiiyuywaCsBTFHj98matZXKnIUH6AVldlhKrhy0lQD2ZHw/2FAa5VVaOIyOCgeAlxM7LLVrKw0ODjarBwAmVss5hzJfYgHQC2I4DA3VrK1U5rtRAXpBTSsH4QDwcuJx3TEcdu7cma7kU1o4lPnibIBeEZf8lzE/q3IAmMLiZmHhAMDviJvgygiHaY3GUCnvoPvoR/8m3HDDijSi6g499A3h8MMPD9Onl/Y8Uhm//OXj4ac//WkaUXWnnHJquPLKK8OrXvXqdCWP0sJh6dIPhu985/Y0ourOPPPMcPHFl4Z99903XWGy/uEfLgiXXnpJGlF1J554Yrjmmq+EuXPnpit5lPYYNzAwkL5RB+vXry/tXbhV88QTT6Rv1EFZbaUSVyttTt+og4cffjhs3NiXRkxWozEQ7rzzzjSiDmq3Wqm/34R0nTzzzDNuah1w4403NgOC+qjhaiX7HOokbua58MJ/CuvWrUtXaNVTTz0Vli9fnkbURe3aSuYc6ifOO5xzzqfC4GAjXeGVirtkr7vuq2H1avMNdROP7K5NOMR/6GWdF0K57rjju+Hqq6/2379FN998c7j++q+F0dHRdIW6GD8+oybhoGqor3jC5CWXXBKWL786XeHlxHbcNdcsD+edd07YtGlTukqd1KqtZL6h3gYGtoRPf/q88LnP/WPzhhdvgBTFv6cvf/lL4fzz/96JAjUWJ6TLqBhLCQcrlYi++MVLw7JlfxMefPDBdIUohuUjjzwSPvnJT4bPf/7C5ouxqK+RkZGxgMi/R0jlQGm2b98e7rjjjvCBD7y/uet382Z7X+Ka9iuuuDwsXfqBcNNNNwoGmmIVmVtJ4aByYFw8p/65555rVhEnn/yn4Xvf+15zVVMZPdayxEohttfuuus/wkknndhc0fWrX/1Ku40XbN6c/4G6pLaSyoHfFW+EP/nJT5pVxBlnnN6csH788VXpV6spBuOTT64O1113XfjIR/4yvP/97wv33ntv+lX4LZUDtRcrhnvu+a9wwQXnh/e85+TwZ392Rrj77h9UbgnnfffdF5Yt+2jzz3juuZ8K3//+95stJZhIGQ/UKgempLi2e+3ateFf//XW8Cd/8u5w+OGHNVc4/fCH94Rnn322eYREGa9ObFWsiOKmv9g6i5PMX/rS/w1HH70kHHPMO8M3vnFDs31U1gvk6R1l3DNLObI79lQvv/yyNIJXLh75feihh4bDDntLWLx4cXjzmxeF17/+9eEP/uDg7Ofd70m82cebfjzuYtWqX4Sf//znY5/Hxr6vUh0wKZ/4xP8JF174+TTKo5RwiOX0ihVfTyOYnJkzZ4bZs2eHOXPmNIPhTW96YzjiiCObobFo0aLmC4ZmzZqVfnd3xBVXTz+9Zuzm/4vw2GM/C48++mgzDGJlE1caNRoNu5pp24c+9KFw2WVXpFEepYTD6acvDbffflsaQXfstddeYeHChWOf/xEOPvjg5vcDDzwwzJs3b+xzwNhnbthvvznNkJk2LbzwlrrYrooLheJNPVYBcYntpk0bmyuK+vr6mu2u+FmzZk14/vnnVAN03amnnjb2QH1DGuVRSjicfPJJzWV7MFXEgNhdZcRNR572mUqOO+64cNtt30mjPEparWRCmqklhkGsAOJHMDDVlLHCM3s4xKWKg4NWZwC8UmUcOZQ9HMp6qxFAryqj25I9HMo6fhagV9WirRR7umW8uAKgV8VVc7nnwrSVAKa4uNM+90vStJUAekDuIzRKaSsJB4DW5J530FYC6AG5VyyVEA7DwgGgRbn3OpTQVhoSDgAtqkHlECekp/45/ABTSeXnHOJqJfscAFpTg9VK2koArarBaiX7HABaVek5h7jLTzgAtK7Sq5XiG7a8NQugdZWuHGLFIBwAWlfpOYcYDnGHNACtiQfvxe5LLpnbSjvC0JBwAGjV6OiOMDw8nEbdl7ly2NmckAagNeOdl3z3T20lgB4QOy8552yzhkN8k5G2EkDrcj9cZ55z2BmGh7WVAFo1vtqzwm0lS1kBWpf7/llCOKgcAFpV6bZSnHMwIQ3Qukq3lXLPtgNUReXbSvY5ALRufJ9YZdtKwgFgMiq9z6HRaDSXswLQmtydl6zhkPtUQYCqqPScQ+7zyAGqotLhkPtNRgBVsftNmrla8yoHgB4RK4dYQeRgzgGgR8SlrJUMh/5+lQPAZMUd0jt2jKZRd2UNh/iaOwAmZ7ytVME5h/7+zekbAK2qcFvJnAPAZI23lSoYDgMDwgFgslQOABTEfQ4VDQdzDgCTVcm2UtzdFw/eA2Bytm4dql44xCVY27dvTyMAWjV+fEbFwsHuaID2VLKt5FwlgPZUcrWSlUoA7RkdHQ1DQ3mO7VY5APSQXPdScw4APWTLljxn1GkrAfSQClYO2koA7cr16gNtJYAekutemrGtpHIAaFflwkHlANC+CoaDygGgXZWbc7BaCaB9KgcACiq1lDVu+Y4HRgHQnlxdmCzhkPOwKIAqq1TlkPOYWYAqq9ScQ3zRT64XVABUWa4Xp2krAfSYgYHuH76nrQTQY3LMO6gcAHpMjhVL2eYchANAZ1SmctBWAuicylQO422lnWkEQDv6+zenb92Tra1kKStAZ1itBEBBjpNZM7aVhANAJ+TYJZ2trSQcADqjEquVdu3aNVY5bAs7d5qQBuiESqxWihVDrBwA6IxKtJWEA0BnVaKtFMMhtpUA6IxGo9H1Vn3XwyHub1A5AHTO6Gj376sZKoedzaWsAHRG7MgMDw+nUXeYcwDoMTk6MtMajaFd6XtX9PX1hY9/fFm4995705XfGhraGgYHG83lrp0ya9assP/++4fp07ueewC/I9c9beHChWHFim+EQw45JF3pvK6Hw8jISFi1alVoNIpngdx2221h+fKrm7+nUxYtWhw+85nPhvnzD0hXAPK4/fbbm/e0Tr7G881vXtS8px144Px0JQbGXmHx4sVh9uzZ6UrndT0cXk78SzzvvHM72jtbsmRJuPnmW8KCBQvSFYA8rr32mnDOOZ/q6D3tbW97W/iXf/lmeO1rX5uu5KH3AkCBcACgQDgAUCAcACjo+oT06Oho8zORr3zl2nDBBed3dGY/Tt7EJV4mpIHcrrvuq+H88/++oxPSRx11VLjhhv//woT0zJkzm59u63o43HTTjeHiiy9Oo9+1efOmsH79+o6uCd53333DQQe9LstfHsCLdeOets8++4TXvW7hC/e0s846Kyxdenrzezd1PRyuuurKcPbZZ6URAO34whcuDsuWfSyNusecAwAFwgGAAuEAQIFwAKBAOABQIBwAKBAOABQIBwAKhAMABcIBgALhAECBcACgQDgAUCAcACgQDgAUCAcACoQDAAXCAYAC4QBAQdffIf3www+HH/zgP9MIgHa84x3vDEceeWQadU/XwwGA3qOtBECBcACgQDgAUCAcACgQDgAUCAcACoQDAAXCAYAC4QBAgXAAoEA4AFAgHAAoEA4AFAgHAAqEAwAFwgGAlwjhvwF+YNs7/myk+QAAAABJRU5ErkJggg==;" vertex="1" parent="1">
          <mxGeometry x="815.73" y="1210" width="104.27" height="100" as="geometry" />
        </mxCell>
        <mxCell id="QlTkq8WYhFlpVvzBfxse-3" value="beeHive" style="rounded=1;whiteSpace=wrap;html=1;" vertex="1" parent="1">
          <mxGeometry x="815.73" y="80" width="90" height="30" as="geometry" />
        </mxCell>
        <mxCell id="QlTkq8WYhFlpVvzBfxse-25" style="edgeStyle=orthogonalEdgeStyle;rounded=0;orthogonalLoop=1;jettySize=auto;html=1;exitX=0.5;exitY=0;exitDx=0;exitDy=0;entryX=0.5;entryY=1;entryDx=0;entryDy=0;" edge="1" parent="1" source="QlTkq8WYhFlpVvzBfxse-4" target="QlTkq8WYhFlpVvzBfxse-3">
          <mxGeometry relative="1" as="geometry" />
        </mxCell>
        <mxCell id="QlTkq8WYhFlpVvzBfxse-4" value="Temperature Sensors" style="rounded=1;whiteSpace=wrap;html=1;" vertex="1" parent="1">
          <mxGeometry x="180" y="190" width="110" height="40" as="geometry" />
        </mxCell>
        <mxCell id="QlTkq8WYhFlpVvzBfxse-5" value="Internal" style="rounded=1;whiteSpace=wrap;html=1;" vertex="1" parent="1">
          <mxGeometry x="140" y="250" width="80" height="40" as="geometry" />
        </mxCell>
        <mxCell id="QlTkq8WYhFlpVvzBfxse-6" value="External" style="rounded=1;whiteSpace=wrap;html=1;" vertex="1" parent="1">
          <mxGeometry x="250" y="250" width="80" height="40" as="geometry" />
        </mxCell>
        <mxCell id="QlTkq8WYhFlpVvzBfxse-7" value="&lt;h1&gt;Temperature Comparition&lt;/h1&gt;&lt;div&gt;Comparing temperatures between inside the hive and outside can provide information about refrigeration/calefacting tecniques used by bees.&lt;/div&gt;" style="text;html=1;strokeColor=none;fillColor=none;spacing=5;spacingTop=-20;whiteSpace=wrap;overflow=hidden;rounded=0;" vertex="1" parent="1">
          <mxGeometry x="140" y="320" width="190" height="160" as="geometry" />
        </mxCell>
        <mxCell id="QlTkq8WYhFlpVvzBfxse-26" style="edgeStyle=orthogonalEdgeStyle;rounded=0;orthogonalLoop=1;jettySize=auto;html=1;exitX=0.5;exitY=0;exitDx=0;exitDy=0;entryX=0.5;entryY=1;entryDx=0;entryDy=0;" edge="1" parent="1" source="QlTkq8WYhFlpVvzBfxse-8" target="QlTkq8WYhFlpVvzBfxse-3">
          <mxGeometry relative="1" as="geometry">
            <mxPoint x="750" y="150" as="targetPoint" />
          </mxGeometry>
        </mxCell>
        <mxCell id="QlTkq8WYhFlpVvzBfxse-8" value="Electroconductivity" style="rounded=1;whiteSpace=wrap;html=1;" vertex="1" parent="1">
          <mxGeometry x="414" y="190" width="110" height="40" as="geometry" />
        </mxCell>
        <mxCell id="QlTkq8WYhFlpVvzBfxse-14" value="" style="group" vertex="1" connectable="0" parent="1">
          <mxGeometry x="448" y="250" width="48.81" height="45.94" as="geometry" />
        </mxCell>
        <mxCell id="QlTkq8WYhFlpVvzBfxse-9" value="" style="rounded=0;whiteSpace=wrap;html=1;" vertex="1" parent="QlTkq8WYhFlpVvzBfxse-14">
          <mxGeometry width="48.5" height="45.94" as="geometry" />
        </mxCell>
        <mxCell id="QlTkq8WYhFlpVvzBfxse-11" value="" style="shape=image;verticalLabelPosition=bottom;labelBackgroundColor=default;verticalAlign=top;aspect=fixed;imageAspect=0;image=data:image/png,iVBORw0KGgoAAAANSUhEUgAAAWUAAAFQCAYAAABnMm+lAAAAAXNSR0IArs4c6QAAAARnQU1BAACxjwv8YQUAAAAJcEhZcwAAFiUAABYlAUlSJPAAAFp6SURBVHhe7Z0HtFbVmb+3/5lkJkYTjYkxFjoIsaKoFOm9d+n3AmIBUUQBBS63U0RQVKqFzqU3qVJEQOkqiqFXJWpMHJMRdTKZ8r/PvvuuGEb02++93/ftc85+1nI5e2e5hu9wzrv3237vRefOff2/yuPxeDxO8P/Mvz0ej8fjAN4oezwej0N4o+zxeDwO4Y2yx+PxOIQ3yh6Px+MQ3ih7PB6PQ3ij7PF4PA7hjbLH4/E4hDfKHo/H4xDeKHs8Ho9DeKPs8Xg8DuGNssfj8TiEN8oej8fjEN4oezwej0N4o+zxeDwO4Y2yx+PxOIQ3yh6Px+MQ3ih7PB6PQ4RqHNRHH32k/vCHP6j//u//NjvB4yc/+YkqW7as+ulPf2p2PPHkf//3f9W//du/qdOnT6v/+q//MrvB5LrrrlO/+c1v1EUXXWR2PEEk8Eb53//939W6dWvVhAnPqgMHDpjdYPOv//qvqnPnzqpPn/vVjTfeqP75n//Z/C+e4uI//uM/1P7976qJEyeq9evX6XXQ4T2pVq26GjDgUVWrVi118cUXm//FEyQCbZR///vfq4yMdLVy5Qr1zTffmN3wUKpUKTV48BCVmtrT7HiKg6+//lq9+OI09cwz4/UtOWxwqPfufa967LHH1VVXXWV2PUEhsEaZD6tXr1S1du1a7YKGlUsuuVTNmDFTNW3a1Ox4isqSJYvVQw89pL766pzZCR8/+tGP9I156NBh6l/+5V/MricIBDLR9z//8z9q+fJl6o03tobaIMO5c1+q9PQ0HSv3FJ0//vGP6sknnwi1QYa//e1v+Yf5dHXw4EGz4wkKgTTKf/rTn9ScOXNC/2EVcurUKTV/fp7+0Dxy/vM//1Pl5GSpTz/91OyEm88//1zl5mbr3+0JDoE0ysuWLVW7du00q/BDEmrmzJnqk08+MTseCW++uV29+uqrZhUNNm3apBYuXGBWniAQOKNMci83Nyfw5Uu2HD9+TE2bNlWHbjz2EAaaN2+e9rKiBOWh48aNUx9++KHZ8bhOoIwyFRZUW/z5z382O9HipZdejJSHUJxs27Zdl05GkbNnP1J5efN8GCMgBMoob9myRb322nqzih5UnGRkZOjabE/s/PWvf81/biMi+9z4/XPnzsn3Ms+aHY/LBMYo/+Uvf9Ev1hdffGF2osn777+vK098GCM2cN+pRz506JDZiSZ0LNJgFeRu16gQGKO8efMm/U/UoeJk9uxZ6rPPPjM7nu+DLk+el0flX2rmqjfe2GJWHlcJhFHGEBFL/uqrr8xOtHn77bfV4sWLzMpzIchBYJBJDnsKwhg5Odmh7GIME8539FFlkZmZoV0vW3784x+rSpUq6bZTVzl79qzIaFx66c/U7t17VIkSJcyO53w4vNq1a6PrdW3huSLu4yr/9m9fqJMnT1iHI9DDGDlylLr33j7q//2/QKWUIoPzRnnPnj2qW7cuohrd+vUbqOnTZ6grrrjC7LjHxo0bdbu4pKKkffsOavLkKV5R7jvgVti58z36+dry059eolavXqPuuOMOs+MeR48eUffcc48ulbTltttuU3l5C9S1115rdjwu4fRRSbhi9uyZohbjn/3sZyo1NVX94he/MDtuUr16ddWiRUuR3OKmTRvV5s2bzcrzbfLy8tTrr79uVnagi1GlShWzcpPy5Suofv36mZUd7733npozZ7ZZeVzDaaN84MD7atkyWaXBXXfdpZo1a+68tiy33K5du6orr7zS7MQOFSnz5vmKlPM5c+aMevbZZ0SVBoS7UFhz/b3hz9enz33573lVsxM7PJfx48fp27bHPZw1ykWpyb3ssstUdnau07Hkb1O9eg3Vpk1bs7KD2+CGDa+ZlYcGiXnz5uqGCVsYMNCzZ6/AyF0SE87KyhKF52jdT08foTsdPW7hrFGePv0VtXPnDrOyA8lCxOGDAuLkw4en6ckRtkS9y/F8MMbUs0u618qVK6c6deocqKECt912u2rdurXoZr916zb12mv+QHcNJ43yiRPH1ZQpk0VhC5IY3bv3cN79PB9i3zk5ubpixBYqOEaPHhU5PZDzKXDLx4t0HnjuaWnp6pe//KXZCQZUU3Tr1kNUKfLll/+uZs+eHTk9ENdxzijjVvGifPzxx2YndojPpqSkiuKzLkC1SL169UQHCnXLu3fvMqtoQihnwYL5ZmVHu3btAztIgKRk585dzMoOlPPWrFltVh4XcM4of/jhGS2eItEOrlixoi4T+6d/+iezEyyIhffokaIrR2zhtkPHVlQ0ps+HWmS0kimFs4Wa5McfHxTYul3e98GDB6uyZcuZndjheWVlZWrxf48bOPUW4n6PHj1aVJPMyJusrGx1+eWXm53gwQ25adNmqmbNmmYndgj1UKny7rvvmp3owG9nxJNE34L4MbdM4slBhmYimkIkyW1a9rOzM/0QBUdwyiivXbtGi+1I6Natm6pdu45ZBRdimxkZWepXv/qV2Ymdwnb0qGXUCXWR3JMMzy1VqrTq0qWLnmkXdDjMGzduIgp/If5PKMOTfJwxyozokSarypUrrx5++JHAJfcuBLWygwYNNis76IB88cUXzSoazJw5Q6vnSejf/2H9/oQBwl7kVCTeInoY5HJI/nmSixNGmaz5okUL1dGjR81O7HDD6dSpkypduozZCQfExiVtvgySZXx+VKQqDx8+JJakrFatuurdu3doDnN+R4MGJIvrm53Y4b1ZvXqV1lPxJBcnjPJHH32kC/4lSRpigcQEg1RbGgtUkKSk9BTpWuB10EZLJUuY4VY3YkSa6HdS+paZmRk6UR6SfjRdXX311WYndgj/ZGam605RT/Jw4o1k9pz0ZoebX6pUKbMKDxiL9u3bq5tuutnsxA4hIErDjh8/bnbCyfr169X27W+aVexwo6ThgsaLMILXSDOS5MBBF+OFF543K08ySLpR3r9/v5o6dYqoUQQ37Z57OoXG/TwfYoTc5qQZdWL0Yc2oU8JFDFSS1OQW2b17im6rDivovtSocbf1t0EYAw1qjLMnOSTVKNMajPspMRx0MKWljQitQS7k7rtrql69ZHHPVateVStWLDercLFq1Sq1Y8dbZmVHly5ddednmEEPA5VEZEhtQZURw4z+jCfxJM0ocyLTSbRnz26zEzu4ZQj43HyzvWsfRPr27aulGm3B+3j66bE6Zh8mMBrSRhGe46BBgwLbYBQrfCMtW7ZSd955p9mJncLEe9TnGiaLpBllPqxZs2aJRjwhzk3nW1BU4IpKyZKldB22RBeDuPLChQtCo4uB0BCTaCQdaLwvNFhccsmlZifckCTOzR2p9TFsQQ42NzdbdPB5ikbSjPLSpUvU3r2y8pvU1J6BUoErKtzqOna8R7eR24IRmz9/vjpz5rTZCTY0ONBkZAvhnyZNmqoaNWqYnWiAN/nQQ/1FSb9NmzapefPmmZUnUSTFKONOS5NQN910ky74l7xkQQZZT/QZJCBmPnnyZLMKLmhr411JBn/SUEFjhURXJOigES25xBBipBLj1KmTZseTCBJu2XCHSO5J9H8L3TFJ7W7Q4aZHQ0nz5s3NTuzwcb300ouBV5HbvXu3zkPwe2xp0KChql+/fugTw98FB7o03IdB5rbsdTESR0KNMh8TM+WYLWdLURIXYeLJJ4epa665xqxih6Qf5XWSyc4uwCGekTFC1ChCCdyIEemhT+5diMLEOF6mLeQiFi5cGPqad5dIqFGmU4hBqJKOIUTgU1JSIpOkuRC//e1vVYcOHUUG5u2392nhGclNM9k8//xz6sCBA2YVO9yMhw4drkqXLm12ogklpBxMEk/h9OlT6rnnJpiVJ94k1Ci/+eabasOGDSKjQDE8NbtRdD+/DRKl1NmiAWwLdaeoqUmkUZMJcqS0jUvem5o1a+V7WC3NKtpIm6147sggbN68yex44knCjDIi7AxqlMxOo2102LDhkUvuXYgbbrhBTzKWsG/fXl0iFxQ4SGhkoEPRFjSG8a7wsjwFkCyWyBJgmEeOzNWlrJ74kjArRxODZKQ5hjgtLU3XJnsK4KZz//0P6DFAttAYwN8FcxCDwOHDh7WAvUQF7vbbb9d5CH+Y/53y5cuLh8Mij7ps2VKRJIIndhLytu7atVPPkLMF44MUYcOGjcyOpxB0G6hEkcTYKS1LSxvuvIpc4agiGhlsiXKlzveB1G3nzp21uL8tvC+MamNQryd+XHTu3NdxzfowDWPIkCE6Jmh7wlJTOmnSZJ05jnos+btAjOfxxx9X8+fnWT/bn//852ro0GE6FOIqiFUR8rKNJXMzRj0wPT3D7HjO55VXXlGPPvqI6NnSjNKoUXAuSngFl112uSpbtqyouzHRxN0o79y5Q7Vr10400aBZs2Zq9uy5kWmnloAoT/fu3axjrhxyF1/80/xn+y9mxz3Q95WI4tDFNn/+QlWyZEmz4zkfvJB27dqqrVvfMDuxw/cYJA+Edx2JAkKg/fo9pFq1ai2SLEgUcTXKfFQtWjTTRf+2kKTZsmWLqlixktnxfBfcdB57bKBuDvEUVKdkZ+eovn37+VjyD/D222+r1q1bihq5ggqlpCTJMzIyne3ujOtb+8orL4sMMg8Ot9wb5B+GW8ATTzwpGi8fRrgl0/noDfIPg5ZKhw4dItVUQ8KYoRppacN0aNVF4vbmkt1/6aWXzMoOtG6pxfXExlVXXaW79cI2EssWDqjhw0fo5+H5YQhB9OiRKpqcHnQWL16iJ9e4SNyM8o4dO9Qnn3xsVrFDVQFTISQzxqJMnTp1dfIlqglRfjelXlTreGKHssGuXbtF7r0hx8XkGvonXCMuRpk4J0pwxJRtqVz5Nj0/LarGRcpll12mbz1UVUQRGiIee+xxs/LYwHNzuQonXiADi8CVa8TFKBO3IWtuW24Dt956q5407LGDQwzBmagaZZoi0Hfw2MOBHkWhLypQsrOzRAMT4klcjDKxTWaESRIIK1eu8GNoBHAQ8uw+/fRTsxMttm7dqvbu3WtWHhv43vLy8swqWtA2npWV4ZQ0adxiylROXHqpfbcZD4lGE9e7zVzjww8/1KIxUR3fU9D9lxGp8q7igO7OESPc7+6MJwzhJZThCnEzyrVq1RSVtKHfumDBfHXixAmz44mFF1+cpnUiogzaDEh8emJn3bq1+QZJNhU8LDDJhqSfpMEtHsTNKDPaPCsrS1dT2EJ32qhRI/20gxihHXnq1CmRF4ohh4GXxfPw/DDEUufMmaPb9aMM783q1avU7t2ymaHFTdyMMtSocbfq3fteUSXFqlWvqhUrlpuV50LgrjNeyx9gBXCgz5o1U9SeHTVWrlyp2/Q9Bd3HmZnpogEcxU3ctS9OnjyhOnbsqI4csXetmbKxbNkKL9t5ATjhEa0fNOhx9dVXX5nd2KDjrVy58qpEievMjnscPXpUx8ptYUjqypWrdBOS57th0EHVqneKxoORxC9Xzt0OUgwsU2psq7+4PA4Z8oSe0JJM4m6UqQpglExubo61wD2iISiZDRz4WOS71b4LKi1SUnqIbjsM05w3b77ThgtthqZNG4tuvTSRLFy4WGtheP4RvsP+/R/SMpy2IEaESBhiYa5CWKZHj+6i5B1llUuWLFO33HKL2Uk8cQ1fAGVxzJSjz94WXp4FCxaoM2dOmx3Pt1m6dInau1cWB2O6MTXhLkO32YMP9hWFvxjQO3fuXLPyfJvt27ep9evXmVXs8PfQpElTVaNGDbPjJtzkU1NTRVrjLoS/4m6UgVsZboEEppVMmjTJrDyF0DE5evQoUSyZ7q0BAwYEQrSHnMSNN95oVrGD6zpx4gt6RL7n7xAznTlzpmhwAGGhlJRUZ9XVCuG9btWqlT7UbcGzZyBHMnslEvJVcsIiVN+iRQuzEzt8XC+//JLavXuX2fFQk0tyT1KTi8h3bu4oXR0TBBgQizaDJAyBQZ43b55Pgn4LVBspg7ONt0KDBg1V/fr1RZ5LouH9ZvKMRNSeAys3NztpNf8JvSo9+eQwUdKOUi9U0CRJibDBx4RrvmnTRrMTO3xMzZu3UFWr3mV23IdbD1KcktsyNe8LFy5Ux44dMzvRhkM8PT1N1CiCQBgJsCDJfFauXFlPSZF4hJs2bdIHejJIqFGmmoIPTPIX+/bb+3QJj+SEDxO4n7NnzxSV7jDVmenOklhbMsEgDBuWZlZ2nD59SieaPUpNmPCs+t3vfmdWscNhPnTocFW6tP1cv2TTs2cvcfjrhReeT0r4K6FGmWoKXFFcUlsIvNNGTClPlNm+fbvasGGD6HAiSVO7dp1AuJ/n07hxY50wtv2z85yoMti8eZPZiSZUslA+KXlvatWqrVq2bGlWwYJ8VvfuPUQj5ZIV/kqoUQZuy/fdd79Z2bFv3958d3SBWUUPMsMMErUtLQQOwrS0EYFI7l0IhqFK5u5hiCjJRFclilDDTqejRA2NsWw9evTQXlYQ4X1v27adVlC0pTD8dfz4cbOTGBL+hXLTwSjfcccdZid2yIw+/fRYPdUkiowd+5Q6duyoWcUOLyYGmVtDkLn++utVx473iGrWaSZYtmxpJFvR0URZsmSx/n5soYKhZctWgT7MqT3m/Zd4iIS/CPskkqQ8afQwyIxKYpuoWqWlRU/Vateundqo2MKLWLduvXz3v4nZCS4/+tGPVNeuXfNvy6XMTuzwvhDGOHv2rNmJBlQQ4F1JKnUYF8V3GqTJ1Reifv0G+kAPQvgraccfHTNt27YVncDbtm1TGza8JoqPBREGPEpH1yCfSnIvqO7n+ZQvX0E99NBDZmXHe++9l/8cZ5lVNCAmum3bVrOKHb5LKhdcbzCyoSjhr5EjcxMW/kqaUeaWTKxKMmWE2zIfV1S0czEmy5cvF7neVatWVU2bNhO5bq5CAwPJJ1t4fmTUkfiMAsePH9NSppLLCzHY1NSeZhUOmE7TuXMXUfiLdyZR4a+kBoqqVauug/C28JJRR/j665vNTnhBXIVGEYnWa0EB/ShRAb3LkEnPzs7RY4xsIek1fDjj5e0EnIIGFQNIFBATtYVGnW7dugc+B3E+hL86deqkSpWyL+1LZPgrqUaZ2xvt16iV2UJmFL3mMJfIcfgUdDPuNjuxg/v56KOP6mqXMFKpUiXVoYOs5n3fvn16YGaYk340zFCpxHdiy80336zatWsf6OTehSD89cgjA0SeY6LCX0l/6r/+9a+1ceUUswVZ0NGjR4Y2tkz//YsvvmhWdtDNRH1mWCH51L17ivrVr35ldmIHUXdi9EycCCvjx4/LvyXLhLxo1LnqqqvMKnx069bN6fCXE0chD6hhw4ai04v5WmEU6qYWGXfpww/PmJ3Ywb3H/bzmmmvMTjipUqWK/p2SjDrJLxfHyxcHhPUWLVpofVnhORJz5VsMM4RnXA5/OWGUeTgpKT1F4/HRw+DWE7aRNgcPHhTXlt56a2UtABVG9/N8Hn10oChEw62HkWNnztgfei5DOC8nJ1vkPZYqVUo99tjjZhVukBKmQ9TF8JcTXy0nNKdznTp1zU7s8GBWrFih20jDxNixY0RJBZ5lenq6uvLKK81OuEFOMjs7V9RG+/vf/z7/v80SHXwuUvAtLNeNMrZQkXDPPZ10hUIUIPyFprg0/MVsw3iFv5y5SuFSUKguuS1Tx0uBfBjmsnHDWblyhXr11VfNTuxgkKXlYkGGsj90PWzDGIDa3pYtW0KRl0Bjm3ZqSWMVFQk05khyO0GFbkXyLrbvDe/K1q1vxC385ZR/i/v0xBNPiuoIuSkz0TnoHxe3Y9qpJZQpU1Y98sgjZhUdOMhRA+PWbEvBePlZ6ssvgx/+YmLGBx98YFaxg1Hq37+/KlvW3bl78cLF8JdzQUdaIe+4406zsmP69FdEL6UrFGXqQWENJoY5itSqVUvUSs4hjuj7W28FO1lMyIJJK5I4J234uPJRhHyWa+Ev54wypTh0+kn67Zl8TMVCsiYGFBUqLfLy8kQqcBhjZFGj5H5+G2Rhc3JyRR2iNOiQUQ9qsriwIkASvsMopadnRHrAbFG6XuMR/nLOKPNgWrRoKbotc0tgmGhQb8vTpk1TR44cNqvY4Zkxc4/wT5ThQE9LS9cG2hZmQT7zzDOBS/rxzq9evUrt3bvX7MRO4VDjsDYYxUpB+KunM+Ev54wyIJ6TlZUtKlf5+OOP1ahRuWYVHHbu3KFeeeVl0YnbqFEjXV/qUXpgJu37EvCy9u/fb1bBgJLQWbNmiW75VOiQGA5bG76EmjVr6WSxLfEIfzlplKFwvLyk1va1117TNb5BSfqha0EZG260LRxgI0ZkiG6HYQRDIx0vT4xwzpxZor+HZIFBePPN7dbvOt5Vly5d1W233WZ2oo1L4S9njTI8+OCDWthcwrhxT+sYs+vgfi5btkzUuoknQW1phQoVzI4HuPHUqGF/W8awUYr47rvvmB23YVwRFQCS5B5z66g88PwdJB9cCH85bZRLlCgpHi9/5MgR3WoqEWRJJIzooSORWmtbeIm8+/l/+dnPfpZ/6xkpem8YucXkdNe9LD7+3NxcUYMRzyUzMzs0GtvFSevWrVX16jXMyg7CX++++65Zybno3LmvnX77iBG3bdtaNIW3QoXr1dSp05wWV6FRZOjQJ80qdnA/hw4dpoYNG252POeTmZmRf3sZL7pJPvvsBKentezdu0cNHPiodVcZ7w1yuRMnTtKHl+f/wmWOen/bcATP9t5771WjRz+lpytJcd4oA+LSvXr1tHYNeEiMp3c53vrZZ38U3ZJRgVuzZp3/sL4HwledO98jCg0Rk/7Vr+zji4mCQQ8YZNsbPbfj6dNnqgYNGpgdz/nwbHv1StW5KVto2543L09824ZAGGUEu++9t7doRl0Y4RReuHCRqlevvtnxfBcc4i++OE234AcpeRdPaBJ57rnnfWL4B6CBq2bNGqKWdQzya69t0JdCCU7HlAuhIQJXnRhq1OEvmunCkmngUYNEKB2iKIJ5lK4soFHEG+QfhiEKiOFLqr+QEqZMUZqXCIRRhtKlEUyJbsdaIVdccYViEOqll/qwRSxgiIYOHR759wZDTOkk4/Y9sYGeCrMKJdDyjkCUhMAYZXrTab8O80SEWGjZsqWqUeNus/LEQuPGjVWnTp3NKprwztBY44kdhkQwREGii/HRRx/q+nEJgTHKQDUFDSXSWE3QoTEiI0M2OivKEMYYPHhw6AaBxgoDdLt37y7SDo4yvDcc5oQybEGHBAU5SQgjUEYZOO0l7ddh4O67a4o6jjyEfX6pGyaiyOWXX6ardTz2EC688867zCp2MMYYZkk5ZqCMMj/0hRdecL4hJF5QohPvoY1h5ejRo2rHjh1mFS1oUNq4caPIQESd48ePqddff92sYoeLI0JHkgtkoIwyoj2Mu4kq1DNnZIRjwkoioawpIyNd/eUvfzE70QIpW7rNpImnqEIp7oIFC3Q7uy2XXHKJDrdKCIxRpruGduQ//elPZiea7Nq1W4+hkZbbRBGkFbdv32ZW0QQR/JkzZ5iVJxaOHTumFi5cIPLMK1aspGrUkDWQBMYoI6nIgNSou2CFh1O8hjaGDYRiJk2aZFbRhe9m8uRJgZMmTSbjx49Tp0+fNqvYoRBh2LBhOh4tIRBGOeiTIYoTbsjxHNoYJnA/58+fr86csf+wwggTStLShut/e76f11/frDUwbD1SDDL9FPXry9vYnW+z5qE8//xz2ijbwgBWdJkvvth+tFSi4CaHjq8t1FBu3LhZlShRwux4zocJNJ06dRQNt+S5ujxI9JNPPsl3r49a68HQdPTss89qyVdJt1oU+PTTT/MNa2e1Z88esxM7pUuX0RIIRZnm4rxR5sNCVEbiRlStWi3fZZusy6FchQJzxJYkc/mYNjJt2ouRLRH8IVJTU7ReiuS2s3z5SqfLyA4dOqh69kzVBsSWWrVqq1mzZvu65e+AMM+0aVPViBFp1roXXAIHDRqsJ/IXpZfAaaNM1phpsbQs2t4I0Bh+6qmn9ewtl5tN/vznP6sHH7xfrVmzxtp4ELOaPn2GFiaKakPNhVi/fr3q0KGdWcUOzxHRnsmTp5gdd0GalLin5NB5/vmJ+ZeBXmbHUwheVZcunUSlp+XLV9ADK7gtFwWn/ZeDBw/qsU62Bhluv72KFqx23VhRy5ia2ktPFbalYGjj7GId2hgG0OAePXqkWdnBB8UQ2iDA5BCJm4wR5/mcOnXK7HgKmTVrpmjwMnamf/+Hi2yQwWmjPGbMKFG8FXc+MzMrEJMV+MusV6+eKDHAx7V27ZpiHdoYdHA/pRPNcTk7d+6sypQpa3bchoM8OztXpM3AwYUXKrnwhBXKBvHKJRVe6FPTyl4cOGmUMTbEAnHpbSF5cf/9D6i77rJvjUwWjOdhaKPktkxlChl1X5lSAML28+bN1aEvW7jlMEw0SNoiVatWVU2bNhN5hJs3b8r/Z7N1+COMUJFCMYGkMevyyy/P/29HiMaPfRdOGmU6jxh8KqFAtOhBswoOiOUw2kliEI4cOawmTJgQ+RpumD79FdHoMIwaYQskYoNEQfirpzYMtnzxxRe6sYZJG1GG72b16lVq7969Zid28Mo7dOhYpGqL83HOKONOLV68SB0+fNjsxA6asbifJUuWMjvBol279iLxE5g7d06xDG0MMvv27VNTp04R3fwaNmyoq1mCSK1atfQEb1t4TuvXr1Nvvvmm2Ykmn3/+uRall3ibKDdyKBbn8GLnjDKF/vPmzROViJUrV05/WJSmBJGC6dQp6qc/ta+rJvY+Z87syI49QheEsU8S95PcQ3p6ZrG5n4mGywjhL4mCIGVfhL++/DK6t+V169bq0lTbwxzvikaRW2+91ewUD84Z5alTp+qieFuIJQ8Z8oS69tprzU7w4C+5efMW6q67qpqd2OGFevXVlWr//ujdlnE/acF/5513zE7s4H7SSFGhQgWzE0w40NPS0kWjnvjexo0bF8mkH2JDo0aNFIX+br75Zl0BU9w4ZZQ5rWbMmC5yP1u1aq1at25jVsGFZB+3Hkls+bPPPlOZmZmi5xdkcD8pDZS4nxgz6pKL0/1MFpSAVqtW3azsWLBgvnr77bfNKhpwCOXm5qqzZ8+andjBq2LghCSW/0M4Y5RJNmBQJO43cR0GqwYpa/593HLLLXrCiqQN9q233tTJmygZ5ldffVUPq7QFz4R4IM87DNChl5qaqi655FKzEzuUyM2ZMysysrB8H1SebNy4wezEDu8Nw4urVbP3aGPBCaOM67B06VJ14IB9Fw3xY8qYypYNRm1prDzwwIOiMTTw3HPPqZMnT5hVuDlx4riuZ5ccQhhjCv7DRNOmTVWNGva3ZZ7fqlWr8m/L+8xOuOESSA6GChRbyEHEc3ixE0aZyQic0hL1KgapMlBVUkDvMpTIMbRRknzCIKOOhkpamEHnNisrS4vz2PKTn/wk/7/N1iVlYQJDkZMzUvTeoFXOMIAoxJa3b9+uE3ySw5zhxTVr1jKr4scJo0wrtUSRCTeCGyWC0mGDBBRDGyUJKIwV4txhvi3zMTHiaMsW+1E9vDctWrRUd955p9kJF9TMPvLIAJFQFd8heZ0w17xTaULFia3gECRieHHSjfKhQ4fEjSLU9N5///1mFT5IQhErl5T4oWswfvz40H5che4ngk62xNv9dIHeve8VD4plDiaz6cIIXsDTTz8t+n14H5ROxltdL6lGGfc6KytDhy9sYWw6riv/DjPNmjVXbdvaq50BHgi3yTCybds2tWHDayL3k4noTAYPM1dffbXq3r2HDtPYQq9AXl6eqFfAdagwwYuUwDvTokULs4ofSTPKfEzEdIjt2EJVQrt27SIxNp1b8tChQ/VHZgsfVXZ2pi4ZCxPckqXuJ94Ht52wVOpcCEIXHTveoypWrGh2Yofw1/z5efm3yeNmJxxQ2TVv3hxdaWILXhW5K0mDji1JM8q4nbifkr57HgyKTGG/JRdSokRJsVAOwx8ZayMZ/ugiuJ9jxz6lqy5sKXA/MyIj7s53glCOpKGEDlHCimFK+lFZsnLlSpF3Vbs2rexNzCq+JM0oF0WhihuApOstqFBZQgxUclum7hSN2D/84Q9mJ9js3btHHzISatasqTsmowSaHnQsSli+fJlau3atWQUbcisZGRmiafh8f9nZOaL6bwlJMcrUBjJuRRKzoo1amvwKMsyL69u3n6ihBG1hDLPkAHQJDhhkOSUlcAXuZ0pC3E+XIIwxePBgXWJpCzmf3Nxs3SkaZHjvX3nlZbV79y6zEzs8v8cee1yrTyaKhBtl3OiRI3O1PKcthbWlEt3hMEBGvXr1GmZlB+LdQVeRK6r72bhxY7OKFtdeW1DzLgljnDx5UifGghz+Qttj0qRJZmUHDUYpKalmlRgSbpR37tyh3SIJTOho1CiaHxagz0DFyc9+Zl/KReyexoCgttES22QmHSOwbMH9RE8kUe6naxBLpxLjmmvsxbpIjiFrKfFOXABvnEaq06ftR19xCeS5ScKGRSGhRpmOPWQ5Je4QnVfduvWIiwBIkLjxxpt05YkkjIHe8KpVrwYujEE88MUXp+W7n7vNTuzgfj7++CA91DLKlCpVSov4SxpKDh8+pIcHBDH8RQUJYkuSmz5NOAjYS761opDQ/287d+7UCv+Sv9wGDRqq+vXrm1V0QWs5JaWnLu2yhU6m2bNnB65E7ujRI1rSVQLuJ7Fkj9LPoXbtOmZlx+TJk0WTOZIJhzkVJJJQaWGlTjLmfCbMKHNSZWamizqwChpFsrVB8ih122236RZsCaipoaoWFHA/FyxYoBsabEmW++kqRTE0hUME+HdQWL16tThUSsltnTp1zSqxJMQoc2I9//xzav/+/WYndqiySEtL0+6Xp4DChhLJPDky6hyOn376qdlxm6K4nzfccENS3E+X4Zm0b99B9Ez4fhkmEITWfbqER43KFYlylSxZUovXS0I9xUFC3taDBw/qmJSE22+/Xdcle/6RongPJMuysjJFHXGJhI+fRhGpCPmIEelJcT9dptB7+M1vfmN2YochAoS/JLW+iYQDnIP8xAl7Qa6iJEWLi7gbZUa95+XNE8V1MDyUo6DM5Pm/1K/fQP8jYe3aNaIW90SycuUK/Y+EZLqfrsNMOQyPBGp9pSGBREGjFIMeJAMzilI+WFxcdO7c13FNqb7//vuqXbs2IneZ0TZLly4TlYBFhXXr1qn77+8jEusOK7ifq1evUaVLlzE7nvPBYFWvXk00DzOsEK544YWJCa9LPp+43pRxI0aPHikyyEWpyY0SdevWVY0bJ6YnPwi44H4GAcIYiWwdDgINGjTQ0/CTTVyNMtKR3OQk9Olzn6patZpZeS4EjRFR7nI8Hxfcz6BQp07tyHY5ns8VV1whngZe3MTNKNMggpi0JGtOob9U5yGKXHPNNWr48LTI6YGcT0GjyOOqRIkSZsfzfaAHgleBQYoyvDeINklkTuNB3Kzetm1btfyfLYWKaMze88QOZU5RUs77LlxxP4NErVq19CCFKFOUgQDxIG5GGSGTr7+2H4RasmQp/WGFXYS8uEH9jMMsKhrT5+OS+xkkiMFnZmZFTj3v2/Ts2Us8OisexMUoE7L4y1/+Iioyb926tb8lCyDUQwnYlVdGQ8D9fKpVq6bKlPHVFhJo2afJJopwiN97b5+kNYp8F3ExyvxAEk+SH4pgzunT9i21UQcVtddeey3w2rdSdu3apQ4ceN+sPDYwRHTFiuVmFS1o43/hheedmrASF6PMCPdy5cqpiy+27zajrTbo+q3JgLbSOXNmaSW+KEKXGZMlgtAC7BIFbfeZgWm7jwd0/zFQ1RXiFlOuWbNWvjsp02ZA//TUqZNmxxMLjEgKmopXcUO3GRMmvGGODdQamXa+desbZieaMEiVgaqSDsB4EDejTOLgiSeGihJ2DMVEwCiI+q3JAG2RZ54Zb1bRZuLEidod9/ww5H3wriTKjWECO8NEm3373LjUxM0oQ7NmzVTbtu3Myo68vDy1ZcvrZuW5EMTEsrMznReJSRRIfDJIQTL/MWps27ZN35T95acw/JXuRGw57toXCJS3aNFcuwi2oBu8cuWqyE8buRB8TK++ulL169dX33psoFqDMrJLLnG3hI7fJBn/RDPN8uUr9eQIz3fDeLAaNaqLwoRIH7jcQUo+ClEiiYGdMOE5XY1BXixZxN0ooxI3evQo9dxzE6y1TdG/GDlylB4Y6lLJiisgQtSnT2+1YcMG69vOr371KzV58lRVuXJls+Mee/bsUT17pohuvXRovfTSy/69+Q4wVgjW803aQl3z6NFjVMOGjcyOezBZZ+DAAaJBweXKlVeLFi1K6PTq84m7UQZixK1atcx3Lc+YndjBaCxatESk/xp2Fi9epB544H6R0br//gfUU0+NdbpJB+Px8MP9tQyjLfyuWbPm5L93rcyOpxCGF6ek9BANQ6Vr8uWXpzvdbEKil4Tv8OHDrAcFI1WAwP2wYcOT1ogU15hyIWXLllMPPdRfpGXBaTdnzmwf9zoP3HpuOxKDTFspAvCud01yyx00aJBIywKvLDc3O7J12xcCIzVv3lxRCRxaGcz5c737DztDM4wkfEXoY/78PF2amywSYpShV6/eqkaNu83KDioxPvjgA7PyYHBycrJFgwPQFqGtNihxelTf0CWQ3FpOnTolHiUVVqgwYEaj5JJTu3atwKjK8X5z8eB9twXNHgauJivplzCjjNgHReo///nPzU7sULKTnp7m/PiiRIH7KZ3IUadOHdWkSVOzch+MMVKcGGdbqDtlfJHETQ8jGJnMzAxR8pTvNycnN1D6y8gOdO3a1azsYLrKmjVrzCqxJMwow4033qTat28vCmPs3r07/yGtjnwYg2nCc+bMEbnlZM1xP4M2t64ogywPHz6k44tRf2+Is06dOkUnT23huT/++CAtqRsk+HMPHPi4eMBwssJfCTXKDPns3j1FC6DYQgkPtx7JKR8m3nprh56vJ6FevfqqQYOGZhUsunXrpqesSJgyZUrkux0pTZ02bZpZ2cFMPw7zIEJ5pHToAeGvZEg+JNQoA9Opu3SRuRTbt29T69atNavoQVKPMI5tTTIg6ZmTkyOafu0CBdOpM0SC7HgXJEX5dxThvUG6gMYaWwhbYNSCWv1UGP4qUaKk2Ykdwl+zZs1KePgr4UYZl+KJJ54QDbXk5aLrBvGdqIH7KU14FuWZuwTZdMT8JeGv/fv3qxUrVkRSF+PYsWP6xidJXN1www26kkHyzF3huuuuUwMHBif8lZQn/fdbm303GZ06OTlZolKwIPO73/1OzZgx3azsKIp34hLc2nCjKemz5dy5L/WtJ2rt6Bjip54ao86ePWt2YgfvJD09I3A5iO+ia9duusZaAuEvSSxeStKOv7p166n69eublR2rVq1Sb731plmFH6pO5s6dI/qwihLHd5Gbb75ZPAJ+z57dOqseJajSQaNcQo8ePVTt2nXMKthQk89kGjpZbSHshYeeqPBX0owypXF8XJJTmPAFST9uP1HgyJEjWppT4n4WpeLFRXBBH3vscXX99fZDLknYZGdniQ63IEKDCBIHtvIGUKpUKTVgwKMil99VKlWqpDp2vEf0mxIZ/krql0rNbOPGTczKjvXr16vt28N/W+aDGjkyRxRHL0ptuMvQEJCdnaM7zGwhSUqtrivaufGC94bONCoIbCFsQcPONddca3bCAe8NST/Xw19JNco8pKysbFF32Zdf/rsaMSL8DSXoWyA4JIGBkNIuStehu6xpU1kTzGuvrVdbt241q3DCLZl6dsn3QaMOMdhkaT/Ek5tuukl/FxIIfy1bttSs4kfSfVpOrbS0ESIdBjKjEyY8m7R2yHiDm/3000+L6iTLlCkr1hsJAnSWde/eXaTDgLrerFkzRKWFQQAXe8qUybo22RZce6neSBDgexg48DFdVWIL3yHyBvEOfznxxbZr115VrVrNrOyYNWumOnDggFmFB9zPvLx56sMP7ZX1cD9TUlJ04XyYufvummIVuNdffz3/n81mFS4Kx2JJoEKhU6fOZhVO8AAyM7N1h6stiQh/OWGUaQgg0yvpq0c8hMqEsMUI+V24n+hR21KyZCntfrquAldU+LhoKLnqqqvMTuwwYJbwV9iSxYT1GCArGaDLd0iFQhjDFudTs+bdqmnTZmZlB+GvN96I31xDJ4wyLkXr1m30pBFbcNWIux46dMjsBB9+EwLkkqkQ6ME++eSTomRGEKHEiVpaiSE5ffq0euqpp0KjIsd7s2zZMvXee/vNTuwQtmAwQMWK9lUtQaQw/CUpkSP8NXv2zLjNNnQm4Eg9LUk/yW2ZSQOIh0hulS6ybdtWrSEtgeSXdC5iUGnRoqWqVauWWdlBhcLbb+8zq2BDhQ7eleSWzCFOxQUVO1GBJHjr1q3Nyo54hr+cygJVqVJF9e3b16zs2Lx5s9bODTqcvtTSSrLmNIgMHTo89GGL86F6B4MiiRGiAkb4S2LIXINWaulEZvTOb7zxRrOKBnhXhGskuh7xDH85ZZQZVtinz32iiQFUYIwfP159+OGHZid44H4uWbJErG+B+1mhQrDkFYsD3puWLVupqlWrmp3Y4ZkvXbpUHTjwvtkJJoxaGz16tCgUQ1PFI48MCFWjSKxQvZORkSkKf/HMx4wZU+zhL6eMMnDbo9NP4kadPfuRvvUEVReD2tK5c2dbzxUDRFe4LUomLYQBKk7IqEtq3pGFpclG8txdgD83bcAk+WzBu8jJGRnZ9waaNWuuateubVZ2xCP85ZxRJlFFSU65cuXMTuxgjJk/hnEOIsSRJRN4AQ+DG0+UoTGAGlQJO3a8pWbOnGFWwYL45qZNG83KDqbQ3H13DbOKJhzkCF1Jwl8FcfzZxRr+cs4oAxnRYcPSRLFRXIpnn30mcA0lTPweP36c6M+NSE+YG0VihTAGaniIsttCGGPixBfUsWNHzU4woBJgzpxZokoAvjPq2YM04ike8N40b95CVa9e3ezETkH4a1mxhr+c/YqbN2+um0ok5OXl6dtDUEB9iqSBxH2+7LLL8t3P3Mgl9y7ElVdeqVJTe6qLL77Y7MQOYuZz584NVBXPxo0b1JYtW8zKDioPqleP9i25kMLwl0QgrbA2vLjCX84aZW59gwYN1rFSW/ioKJGjVC4IbNy4UVyMTjxMkuAKKySrUAKTJIsLuygl9eHJoCAWLjMG5G6i0igSK1SfSMNfDDOW6p2fj9P+btmyZVXnzl10nNmWgwcP5rsVS7R74TIcHLSK84HZUpAUTRENCwgzeA+Ml+f2Ywu35bFjxzrfUMKfb+TIXFG1EYYY70qiGxJ2sDfSJrZJkyYWS/jronPnvnZ6zC+iKvfcc486fvyY2YmdypUrq8mTp4q6dhLF2rVr1ZAhg0R1yQ8+2FeNHj3Ghy6+A8b3DBjwsJo+3f72wiXgpZdeVjVryhpSEsH777+v+vZ9QE/isQV9i+nTZ4ZiokhxQ06HG+/w4cOsk3d8hw8//IgaNmx4kapZnDfKfFyIqzz66ACzEzu4shSGu2y0mM4tUStDbGjnzt3+w/oeuLUg8H/y5AmzEzvctiXldYni3Llz2suy9QTR1p44cZJq06atTnB5/i8kTdu0aaX27bMvdUOHZfXqNapiRXkllPNGGXjxGjdupOM2noKkxJQpU3WziOfC4OKPG/e0nlEnmb4RRho3bqzmzZsf6brkWNiy5XXVsWMHkQfLoNmXX35FFHaFQNRQkfTLysryMbB8uN3Uq1dPNWzYyOx4LkRhzXv58uXNTrTh9p+dnesNcgzUqVNXN2NJWLFiuVqzZrVZ2ROYwtbKlW/TJTxRd7lwPyl05wPz/DDMmnv00YFmFW2YbSipSoki2Jn+/fursmXtm9jw0MaOfUo8OiowRpm2627dekRGkvJC3H333boLy8cDY4PnRENJvXqyyelh4fbbb9ca2/69iZ1SpUrnvztdRDmpkydPabVHCYExysCLRclKVEGEPDMzy9eWWoIhYuSYRAw/DCCL26NHqtNVSC5SGP6SiHzREHb8+HFdqGBLoIwy1RSUnETVKLVp06ZIWd0oU6lSxch2r2GMSfBFUQWuqBD+Qq/bFooTqOKQyCYEyijzAymPC6oKXFFB1pMxUR57zpz5MLLVO3/845/UG29scb6RykWoA3/11ZVmFTsUJ5D/kRyEgTLK6AwHVcmrOKCeOSsrU1SmE2VIvIwePUp360URXGkmkqBo5okdyiiR5jx16pTZiZ2LL/6p7kiWxPADY5QxRGglf/zxx2Ynmqxfvy6uQxvDSFFLlMLAnj278z2txWbliQX0zTnMJJcgmrtq1ZJpNAfGKDMYlZcqaJKcxQ0dgLNmzRB1AUYRbsfxmA4RNIqilRFFCPVMnjxJyzzYQoJw8ODBWrFQQiCMMm7EyJE53v0yxHNoY5godD9Pn7Z3P8MIoldMKAnqhJVEsmvXTjV9+itmZUeTJk1U+/YdzMqeQBhlPizkLT0FxHNoY5jglix1P8NKUfSXowL6yIwHk0wT4XZc1OHFzmtffPTRR6plyxYilTjKx5YvXyHSZE4UL730ohoyZLBIm4EOrfT0DHGPfZjB/Rw69Ektp2gLz3Pq1GlO18RTTdGrV0+R99iiRYv83/ei7wr9DnhvGO/EN2lrlKm06Nu3n+4lKEoru9M35cKZex9+eMbsxA4dgKmpqaLx4Ymkbdt24vpZBNmLe2hjWCiK6HhR3c9EUKPG3Vp2QEJRZvqFnYKZe3NEt+Rrr722WIYXO22UqcnFKEvqksuUKaO7cVy/RdKl1717d9GctM8++0w/H8kLFGaKMp4H91M6HzKR8Odjcojk0sFzSU8fIRqsEHYWLlyg9u3ba1Z2MLy4OLRFnDXKVFk8++x4UY1g4QsrzX4mEuoYW7duo+644w6zEzu4WjSUFOfQxqDDM5EOssT9lLbVJgNUEzMyMkUdrlRhULsd9aqUb8PQ5dGjR4ueCZPUi2t4sbNGmZgZA1AlEBJo1qyZWbkPQz75uCQjzgvmtGX6jLoB95N6dqn72a1b90BJWzKjsU6dOmZlx6JFC3X9sqfAe6AyBS/LFjr3cnJGFpv8g5NGmZ7xnJxscdE2A1eD1ueP2BJJAgk7dryl5/x5Cip1ku1+JhKmoxDHlBzoBQcY4a9zZie6bN68WRxnb968hapWrfiGFztnlAtc8sV68KktxI+RaSxXzl4DNdkQxrj33j7aDbKFZ/bCC8+LKlTCBO6ntFHk5ptvLjb3M5Hw3mAUqlevbnZipyDUs1S9++67ZieafPHFF/mH02x9GbSF4cU9evQo1uHFzr2BBbWls0XueMmSpVTXrl0DqyJHDBwBeypHbCmsyf3rX/9qdqIF74u0drtwIkdQ3xvGg2VmZovmNXJLLqjJje5tuSi128w6rFq1mlkVD84Z5dmzZ6n9+/eblR0PP/xw/i05uKN/uOlLE03UOVMiF9XuNdxPaZcjcdnidD+TwY033qgGDnzMrOzYvXuXevnll80qWhSly5FQ6fDhxV+p45RRxv1+9tlnRPoWd955p+rVq3fg3M/zoUSOkizJrY3b8tixYyOXUcf9nD17pjPuZ7Kg2eW2224zq9hBiH3KlMnq8OFDZica8J3k5uboBjVb+D6zs3PiMk3eGQuG25mWNlx0YlEalJWVHRoR76ZNm4onVS9dukStXbvGrKLBa6+tFyvnUalT3O5nsiD8lZLSU08asaUoimhBZe/ePfp7sYU4PsOLGzVqbHaKF2eM8oYNG9TWrdvMKnYK6nxbqypV7Ot8XYXb/qOPPqpKlixpdmKH03/MmNH6I4sCqOVlZmaob775xuzEDu7nsGFF0ylwCS4lHTp0UJUq2U+n4b2hcuXEiRNmJ9wQQ589e7aoTZ1Kl5SU1Li1qTthlJn6OmvWLFGNIINUGagqSY65DFN0GXQp6Ug8cuSI7kwKu8wphoTSybNnz5qd2Imn+5lMMBTUvEtqrekQ5UCX6LAEDfJWy5cv1xUotsR7eLETRhkB8rfeetOs7CCORo1v2OD21qlTJ1WmTFmzEztUYJD0C7t2Lo0Py5YtNavYibf7mWzq1Kmra5clrFy5QjT+KEjQWJSeni6q1CkYXpwd10qdpBvlzz//PP/GkiWKZZUvX0ENGjQoNLHk8+G2TO2sBIYCMM8wrPBB4V3hZdlCB1Y83c9kw6HTv39/USUSN8exY58SeR9B4cUXp+l4soTHHx8kCg/ZkFSjjJuEMArDCW3BPcvNHakuvdS+kyko8HH17t1b1axZy+zEDh/XxIkviMsLXYfftXLlSpH7WaNGjbi6ny5QqlRpXbMviZcfO3ZMh7/CWMVz5MhhbZQl7w0VXpSsxpukGmXagyWz0/iY+KiI7YQdfiuuFmPibeGjogaTkrEwQZKG3+Wq++kC5CI6drxHVPOOKuP8+fPVmTOnzU44wBsnuSdJglPR0qNHqq70ijdJM8ok9WbOnKnDF7bQ74/7Ken3DyK33lpZK8lJbnaMtVm9epWuRQ0LU6ZMUXv2uOt+ukKpUqXEDSXMpps2bZpZhYOTJ0+qBQvmixKZNOe0b98+IaHSpBnlvXv36luyxFjUr98g/5/6oXY/vw2VJSRuKOGyhaTGvHnzdGY9DOB+EiuXvDeJcj9dge+DRHjDhg3NTuzg3k+bNlXt3h0OFTkMMYNjpaFSKnUSdQlMilGmtZFYsqRRhBI4RiCFNbl3IejUQlZSArdlSZWCa1CLTHKPzkVbEul+ugYdohIxfEoqs7Iy9QT1oENFCR6jLRxsqak99aSXRJEUo/zccxPUe++9Z1axwwNiKGHp0qXNTnSgoWTgwIF67qAtxJbDMF6egQe4n5IEVCLdT9dAAa9du/YiCQJkUEmoBjn89fHHH+uKEkndfoUK16uHHnrIrBJDwo3ygQMHtAqc5C+ZKgSGPkYVRkaNHDlK1CiDLgRt7EFVkcP9zM3NFoVhEu1+ugYqcjQiSQYI480yciyoHaIYYg5yKkpsIRncpUsXrT6ZSBJqlPkLnjlzhiiuQ+lbSkqKzp5HmWrVqqmmTZuJ4ulbtryuh2YG8dazYsVytWaNvaZHMtxPF+G2zHOQQE0vU0qCCBUkTDCSzPm8/vrrtQZNor2rhBpl2n8XL14kciPo2mvZslXgVeCKyqWXXqo1l6lAsYXb8pw5s7ReRJBggO7TT48Vu5/9+skmuoQJDicakW699VazEzs8d9z/kyeDp4sxefJkXUkiYciQJ0TeRVFJmIXDbc7KyhAlDUjS0CgiUb8KG3xcVJ40btzE7MQON+R169ap7du3mx33IX6M+3n8+HGzEzuF7ieNFJ6ifUcc5MOHDwuUihwVXi+99KKoUaRJkyZaQVDikRaVhBllPiyEyG3hZtyv30OiEz6s8EwQ15ac4sRmyahL1LGSQVHcTxonkuF+ukxRPE4O840bNwYi/EX/A+qBEu+qQD0wzawST0KM8qlTJ9Vzzz0n+stkZl3Pnr3MylMIjQHITko+LsTMcUeDwMSJE9WxY0fNyo5kuZ8uU5ibkajjcVsm/CUZJpBIsDOUv0n0LfieqFS54YYbzE7iuejcua/jeuxxMyMeiBGwLWUia0zWnCnPEuMTdhDjSU1NUdu2bbU+8Ji4MX36DHXjjfaDWhMFjSJNmzYR3XZwP5csWWZWnm/Du/LII/3VjBkzzE7s0L790ksvq3r16psd9/j88z/l24y+esyVLZTbLliwKNxGmVvZPffcI0oSVKlSRc2fv1BU+B4FiJWROEUQ31aLmkMOlT2acVwFD+v0aXv9BdxP3hvJaKSoQO1u48YNde23Lbwz119f0azc4+uvv1Jvv/22qJ49Jyc3/3samJRYciFxN8oPPviArnOUhC6WLVuhGjVqZFae74Iyw65dO6tNmzaZnWjDYUOVQWZmlva0PBeGMrf77usj8kTCyB133KHWrFmnLr74YrOTHOIaE3jjjS0ig8wpRc++N8g/DC9Qbu4oX5liYIQWOiHeIP8wDRo0jJSGzPfB4FxCpck2yBA3o0z2Mzc3V3RDJon12GOPm5Xnh6CF+OGHH/Fx93zuvbeP+u1vf2tWnu8jamqLF4Lvpm3btqpy5cpmJ7nE7StmvNPBg78zq9ghkUAZU/ny9lMTogwfF11bUYYcxP33P+BvfjHCc6LeHdH/KINIFRUpyBi4QNyMMt17586dM6vYodCfgv+wTBhOFNdee6122yUDM8OAS+5nkEBHBT2VME/w+SFatWqlqlWrblbJJy5GmcQB8pySTpq6deuKZotFHVywBg0aiCaUhIG77rpL3XDDjWblsYEqnKgKfeGZP/LIAKe8q7gYZQwENxbJD6XgOyjdZq7B3LovvnC7sD9efPDBgcAqmSUbmkKodY8iXCBXr7YfSRdP4mKUMcZkwSWu5OHDh9WSJYt9mY4lNJIwf0wyty4MIOk5Zsxo0aifKFPYdo/oUxShEGHKFLloUTyIW0z57rtrquuuK2FWsYPgydy5c3Rxuyd2Vq1apZOrUYbpEvzjiR263pYvj3bnIx7WnDlznBFbiptRRnOgf/+HzcqODz74QOsue2IDfeqcnKzACtgXF3hXTz01Rp09e9bseL4PvCrGa0mGF4cJvIW8vHnqxAk3pEnjZpQJYaSmpqpatWqbndjh43r22WfU735nX1IXNXihUMMKy2DUooLEp3RkVNR499138z2LV0UJ+bDBxYYD3YXwV9zbrBna2bVrF5HRQFRm+vSZkS9u/z5ef32z6tWrp/Vth0OT5oGf//znZsc9/vSnz601PYA5hosWLVJlypQ1O57z4ZbcsmULrTlsC92jV155pVm5BzKvkhg5Eq+IdLVv38HsJIe4G2XiNMOGDVUvv/yS9YlMMTeSn1EaC28DZYcPP9xfT6q27ZzEII8bN96p+szzoU2/X7++ZhU7VP88+GBfNXbs02bHcz7cCnNzc0QdtwjlI2/pKsSI0dyRJO9Qh1u6dLmu+08WcTfKsG/fPtW9e1dRrK9OnbpqxoyZka2//T4QHO/SpZMoQdG6dRs1c+Ys55t02rVrozZs2GBWscOtZ8OGTbp+2fOPoNzYpk1r0ffI88zLW6ClX12F8OeECc/qCe62wxGYVsMACZTikjUcIW4x5W+DhCLdZhJ27HhLjzj3/CMIjWdkjBAZZFzPzMzMQHRNMgFCIt3Kh0msXTJ+LMx88803Orknqemma7J79xTdluwyGNMOHTrqwae2YMTnz5+vTp+2lzQtLhJilHEnBw4cKBKK4SExWv6TTz4xOx54/vnn1IEDB8zKjieeeFJ3cQUBJs/gKvMO2fL22/v0gS5x0cMKidD58/NEidAbb7xBtW/fPhDjtUqUKKEGDRpsVnYQ9pg2bZpZJZ6EGGXglEViUtJQQmMEtx7JnLYwQtZ8zpzZImNDDJmBkEEBCc5u3bqLxjqhNY10rD/QCyi84PA92YKmCrHkoCTdSWSTsGvevLnZiR1yX9OmTVV79tiPkyoOEmaUoWrVqqpp02b6gdmybt1atXVrNFtBvw2GZvbsWaJqFg5G1LBcdz/Ph9tyr169zcoO2vYRc/cwNGKpnmZuS0F5a0+nk8IX4sknh4mm6yQz/JVQo3zppZeKhzZ+8cUX2hhRcRBlitKGzkRwdGMloYBkglFgorlE75bnxHxIyTiyMPHhhx+q8ePHiWqSGf300EMPmVWwIGRKfFkSctm3b6+u4050+CuhXycfV9269bSGqy08mLVr16gdO3aYnehBxx46BRxQtiDRyPwxVzRjbSHsxZ9fMmGFg3z48GHOtNEmGuLHNNQQT7aFaoTOnTurkiVLmZ1gQfirS5eu4vAXkg+JFrpK+JWJWxolJ5KHhFHKzEyPbEY9Ly9PN4vYwmF43333qzvvvNPsBBNE7Fu1ai266W/btk2X1kUx6UclARUFkm41KhgYOhGE5N6FYDIP77+EZIS/kuLHoiCHYZZ8XOhi0IIdNU6cOK4rLiRGpVKlSuKX0iW45RP+uuKKK8xO7HBbnjt3ti4ljBoTJ76Qf0s+ZlZ2UKkjuUC5BJcSJtLcfvvtZid2khH+SopRhiZNmqratevoB2YLJT2MEI8K3HAWLFigR+7bgvvZtWs3XSIUBlAfbNmypVnFDocZN+UtW143O9Fg584davr06aLDvGnTpqpNm7aib9Q1CiesSMJ36E2npQ1PWPgraUaZ2450LhYi+HPmzFJfffWV2Qk3BSI7C0S1pUVJdLgIBoKMeunSZcxO7PD8srOzIyOGX1BKmilK7tFmTONOmCDR3aZNG3H4iw7aRIS/kmaU+biaN2+h7rrLPs6JS7FkyRJ16NAhsxNuCNdIO4yeeGJoUvv44wElTllZWXqUjy248WPGjAp9bJnfR+PMO+/Ye5Qc4DTshG0qOBfAHj16iMJf3Ja5CCYi/JU0owxk1EeOHC3KqPNwqCMMe0Ydd5twja0R4dDD9ZS4+kEATZT69euLXGvKnHDrwwxDIoih01ZtC6EuZBGoXAgb1avX0N+FLXx/hL8QyYo3STXKgCrTgAGPilyKrVvf0CUrYQU3OycnW3SrIzkzZMgTZhU+ULmjoUHSYRaF0Vkc5O+8845Z2dG79706ORxGCsJfQ1XZsuXMTuwQ/sJDi3f4K+lGGXr0SFG33HKLWcUOxmrixInizLLLEAdcsWK5ev/9981O7OB+EkeuWLGi2QkffFyNGjVWtWvbD1Hg2S5fvly3q4eRY8eOqvHjx4sajFCBe+CBB0UeSFBA4Q7jKhHkSkT4ywmjfM0112h3if56W4i1Ur/rwsSA4gRZRbwASXiGQv+uXbvqyosww/tCRl1yW/7qq3MqPX2EbhAIE7wvNMpIhgMQc83MzBLp0wQNKr8aNGjgZPjLCaNM6II4zy233Gp2YgeXYvHiRero0aNmJxzQUi65JcMDDzygW2OjAFUYgwcPESX9mLqB8Ew8bz2JhN+xfv069dZbb5md2Cn4Bttomd0ocNlll6mUlJ6iyTvxDn85YZQBl2LEiBGik+v06dPqmWfGm1XwoUHmhReeF5UykcggJhhm9/N8mEwjaQyA6dNfUQcPHjSrYFMUfRhEqpipiWhVFOD7aNiwoWiGaLzDX84YZSCjjkyjrUHhhrBw4QLRhArXwJ3G/ZTUYF966c90HS6F8lECEfwePVJFbveZM2d0mCgMk8A3bdqoNm/eLLr5075etWo1s4oGroa/nDLK8Oijj4oaA2DUqNxAa+fyMa1evUqk44r72b59Oy1zGTU4xCn9q1LlDrMTO9x6kLQM+uR0SuCo1JEk9xh4QEVClLyrQkqXLq1byaXhr6lTpxR7+Ms5o0ypCqpUkswokzj4wCRuvwswkZpRPZJYFTMMuS1Gxf08HxoCSFJJOheZfDx69EizCh4YBf78p07ZNxhhjNLT09VVV11ldqIHgku3317FrOyIR/jLOaOMMe7SpYvotowLyqSJjz76yOwEC4T8t2/fJjp56cCK+pBQVPCIp0tq3hF/X758WbHfehIB78yqVavMKna4GTdu3FiHDaMMBxKSD5LwFzrVxR3+cs4oAwZ5wIABIneKJNnMmTPMKjiQrGT6ruSWX7FipVA3itjQv39/8fxB1MCCdqBT+kYlgETOlsoDBqFSiRBlsDMtWrRUd9xhL/kQj/CXk0YZOnfuousIbeEhTZ48KVCNAfyZc3NzRCPf8SwyMjJ1+MJTtBrtI0eOaO1cSVw2WaCWuGrVq6LDvFatWqpRo0aRjCWfD+GvrKxscfiLfFZx4axRpu8+MzNbNDqKyoURI9ICoSKHu0zGfMOG18xO7PAxIa9Ys2ZNs+MhRsqBXq6cfRtt4Xj5M2dOmx234f1GUlLynnNLpvIgjPoWUhiigO64JPy1fv16fWMujvCXs0YZypcvr4PwksxoUW4QieTLL7/Uk6klI55wO0nuSQrgwwwdojSUSG49jJefNGmSWbkLH/+kSRPV/v37zU7s8D1RcSCtcgoz/fr1UxUqXG9WdhRX+Mtpo0zgHdGZK6+80uzETmGsjYoGl9m5c6dO8ElOWOYd1qtXz7uf3wEdopLx8vw9zJo1U+3YYd8Vl0jo9uTPKYHYaceO95iV59sUJfxFV3FxhL8uOnfua+fTzcRbn3pqjLXhwljddVdVdckl9tKgiYLEpER1CpW0HTt2BX5UTzzh2bZs2VwPRbCF27bLSmkffXRWCw/ZeoLI5I4d+7RKSUn1h/kFIEbcrl0bUfIOeYNFixaJVOgKCYRRpm20WbMmIlctjOB+jh49RvXt28/seL4LtIRpqCDxK5naEkZoK543L08f6p4Ls3TpEtW7dy/rWy8HHfMAx4+XzxF1OnxRCG2Q2dk5kVCvigXaYalL9nw/tJuj50AbtqdA0pUGG2+QfxjazimTs6Uw/PXWW2+aHXsCYZThjjvuyL8tN4+8y4X72b17d1GcPYrgTvbpc1/k3xsqCh58sK9usPH8MJSaMnFf8p0hn5qRkaH1MSQExigjtkPXjaRELkxwS+YE9/HA2HnwwQf1oR5lrr/+ev0cPLFTpkwZ1aVLV1H11+HDh9T27bLbcmCMMtSsWUvkUoQFXg4K3KPegWULeiCEvyST08MAtchdu3ZTJUqUNDueWEBFjougJPxFqeuhQzJNjEAZZVwKYmJRdd2p2WZMuseem266WdWtW8esogVa5ZQISuq2ow7hr9at25hV7JAgpPVdUh4XKKMMtBPTViwZHRV0kAqM99DGsPLZZ3/Iv7kcNqtowXh8FBQltfBRhykjEskGYvgkmiXdgYEzytC8eQtVo8bdZhUdqEula8h/XPYwyeXEieNmFS0oKZ0zZ5b685//bHY8scB3tnLlSvXOO2+bndjBIJcoUUKU+wmkUWZ0DbEekn9RgwnXu3btNCtPLFCeNGPGjMgeZvzujRs3qjfe2GJ2PLHA4IB58+boendbrrrqN6p69epmZUcgjTI0adJET9qIGoVDG6XlNlGDbj7GyUfdu6B5JjMz04e/LFiwYL7W0JFw3333qTJlypqVHYE1ymTUR44crfr3f1hUshJUaKtlaOM777xjdjwXotD9fPdd/6yA8M2YMaMif0DFAqHCcePGiRJ1lK3ee28fs7InEG3W3wdyiytXrtCttPSssw7SS8fgRYl7RBPAmjXrIjck1Qb0qXv06KYTpLbwXF3uIP2P//hr/rvzlfW7TuXS3Lnz9NRzz3dD80dKSne1du1asxM7hFSXLl1apOcbeKNcCMbt+PHj6i9/+XOgdA7efPNNNX78ONGfGT3cRx6RTWiJAiRFmeYiue0MGzZcVavm7nRnxHJGjx6lKytsoBqAmmVugVGt2/4+CryrFeqhh/qJnm337j3U008/XaRZmaExykGFZEKPHt3V7t27zE7sMIl34cLF6re//a3Z8RSC+4n4v2QILbeclStfddoLYSYcgjkYEFswGIsXL9biRJ5/hNriPn1668SorRdCPXhe3nytTFkUAhtTDgt0C/Xo4c7QxjBAOGjYsKEig4z7mZ2d7XxYiC693NyRWqzLFpLEGRnp2rv0/CObNm3Uk4AkIdCC4cVFM8jgjXKSIfTQsqVsaCNueXEPbQw6fEzr169Tb71lL1KP+0lFz0033WR23AZPiQkikkQ3cfapU6eIjE9YwWtF6lUS7mJaSXENL/ZG2QEY2kj7uKQNlmTW6NEjzcqD+4l0ItoDttAtynitosQDEw2t97ffXsWs7Jg+/RV18KBMnyFscDjxHZ06dcrsxE6h/ENxDS/2RtkRUDGTDm1ct26dbirxt54C93PLli1FcD/vMqtgcNVVV+lGKh/+Khrbt29Tq1atMqvYwdNt3LixngxeXHij7BAMbSxfvoJZ2cG4rOIY2hhkKInMzs4SuZ8VK1YqNvczkRSEv1qJwl/UvPvw19/neeJl2cLQ4pSUnsU6vNgbZYdgaGO3bt1EQxuPHDlSLEMbgwoGBvfzzJkzZid2cD8RuSou9zPRoDGOpKsk/MVBNmpUrllFk6JMvq9Xr76qX79+sZaleqPsEHxUnTt3yb8tlzc7sUPTzIIFC/KN0mmzEy22bduqVq9ebVaxw8fUtGlTXT4XZKpUqSIOf61fv17fmKMY/vrqq69UWtpw/W9b0DXPycnVlTDFiTfKjnH11VerwYOHiG49R44cVpMmTTKr6ID7OWfOHJH7yYdFcq843c9kQfiLKgAJNNpELfzFITRp0kTRQGYqXoYOHZbv3Rb/4ABvlB0EUe2iDG3cuXOH2YkG+/bty78lrxK7n/Xq1StW9zNZEP7q2rWrKPx19OjRyIW/3n//ff29SKAeuX37DmZVvHij7CCFQxvpELKFvn3cMTR0owBu5/Dhw5xyP5NFUcNf8+fPV6dP25eEBREqTubNmyvyDgqHF0u+z1jwRtlRGNrIByZpDPjgg99pUZSw33rwDCZOfEHfeGzhuXLwIUQeJgh/UUUiCX8dPXpETZ482azCDe/M8uXLRN4Vt+R4Di/2RtlRijK0kTbauXNna+3lMPPee++J3U/kFalLDiOtWrXWZXK2FIa/GAoQdqg4+eSTT8wqdjjMqXS5/PLLzU7x442ywzC0UZpR3717t44RhhXCNLifdDTaUuh+hnUAL+EvVO6k4a/09BGhDX9x8CBej+CQLXyH/fo9pCpXrmx24oM3yo7zwAMPiBoDYNy4p9Xhw4fMKlwwCFTqfnJLjqf76QKF4S8MtC0ffPBBaMNfp0+fVs88M96s7KhUqZK+JMUbb5QdBx0GVMsk2reff/65VgMjiRMmuO2MHJkjGm1U6H6S5AszheEv2rBtIWnKoNWwhb/QLMd7PHbsmNmJHZLB6FAnIgfhjXIAuPXWW1WbNm1EYQzU0mgOwJCFAX5HXt48tWnTJrMTOzw/xofxPKMA4a/7739A9N7s2bNHLVy4wKzCAZUleXl56m9/+5vZiR0qWhB/kiRQbfFGOQBwW05NTRW1ATM9IUzj5fmwnntuglnZwTCAPn3uM6togFGWhr+YiHPoUDjCXxzmEydO1HMKbcG7IkYvSbpL8EY5IPBhSYrVeRlff/11tXHjBrMTXHA/Fy6Uu59dunRV1113ndmJBiQ1ixL+yswMR/jrjTe25F9OZpuVHW3btlPNmjU3q/jjjXJA4LROSxshMioUyo8YkSZqQ3aJU6dOit3P66+/XnXq1Dkh7qdrEK5p27atKIzBDEmGBgQ5/IWXmJWVKZIo5Xb8xBNP6O8vUXijHCAY/YOYtkQ7t0ANbKTIoLlAgfv5gjp58oTZiR0+qCefHCZKeoUBwl8k/SThL0rjZs8ObviLCpIlSxaLwjBUrpDcK126jNlJDN4oB4xGjRqrOnXqmJUdlJBJBrS6AHPT5s6da1Z2EPZp1qyZWUUTwl8dOnQ0q9gpDH9t2PCa2QkWn332mT5UJG343JKpZ090G743ygGDTiJUzSQlXX/4wx+0mDcdf0GCW1pubrbY/RwyZEhC3U8X4fdL28qJKdNQEsTwF40i77zzjlnFTmGljnToRFHwRjmAIKpdv34Ds7Jj7do1ateu4NyWcT8XL14kmiWH+9mtW3dVqlRpsxNtCH9Rox2V8BcNRs8++4xZ2VG9eg3Vs2cvs0os3igHED6q7OwcPQ7fFm6dJP2C8nHhfqLHIBmHnyz302UaNmyk6tata1Z2EP7atWunWbkNXhWVI5LbfUHuJlN0eBUH3igHFMS1hw4dKnLLUchC3FvSopxIiGfSKCIRIcf9fOSRAapcOXsZyzBTKOovDX8xTMD18BfvzZo1q9XOnfYHCO9N+/bt1U033Wx2Eo83ygGGEq8qVe4wKztefvkl5xsDcD8nTHjWrOyoUeNulZKSalaeb4Oof4MGDc3KjgJj53b464svvtA1yRJRJUSqunfvoeu7k8VF58597efSBxRuurx8Q4YMts4uU69LrPWXv7zC7LgH2haSQaiMdlq2bLnWvfV8NzzXqlXv0qO0bLnmmmvUtddea1bugdIdFw5J08vAgY/pIbrJTAx7oxxw+Khwt3bseMvsRBvcz549e6oxY8YmLSYYFJ5//jldVUGnpEflX1JKqV27dou6H4sTH74IOCT7SEok091yCdzPbt16eIMcA0UJf4UNvh9GgyXbIIM3yiEAfeDeve81q2hDCdztt99uVp7vgw4/Ov3o+Is6xNkZousC3iiHAFx2JiIko9DdJUqXLu0bRSzgvUET45ZbbjE70YSGrNTUXjoX4QLeKIcEdB249SBuHkUK3U9/67OD8FdWVlakw19NmjRVtWvXNqvk441ySKB7DWnKqHav0eVYt249s/LYQJXKvff2Matowe0Yka+f/OQnZif5eKMcIrgtP/nkk5Fz33/xi1845X4GDcIYffv2UxUqXG92ogHfCeVvlPi5hDfKIQNBboaCRommTZs55X4GEVrSmW4TpfAXHkKbNm3Nyh28UQ4ZNIU8+eRQ/ZFFAW7J3HaiGksvLrg1Mv26bNmyZifcUPrGIfTLX/7S7LiDN8ohpEKFCqpXr97qxz/+sdkJJySnRo8eo66++mqz4ykKv/71r/MPuCwnanXjyUUXXaTq1q2jb8mEblzjn4YNG55p/m9PSOC2XLFiJd2GjX5EUKeNfB/Ejx9/fJDq0SMl9IdPImFqM/XLR44cUV98EezxYd8FCb2OHe/Rhzlelov4NusQ880336idO3eoCRMmqG3btoainRYZTkqY+vfvrypXvs2HLeIAGtYffPCBeumlaWrBggVaSyIMUI89YMCjqmnTpiLZ20ThjXJEQHbx7NmzgTbM3IjRJ6DY35MYELo6ceKEPuCDCp4jlUkuiyh9G2+UPR6PxyF8os/j8Xgcwhtlj8fjcQhvlD0ej8chvFH2eDweh/BG2ePxeBzCG2WPx+NxCG+UPR6PxyG8UfZ4PB6H8EbZ4/F4HMIbZY/H43EIb5Q9Ho/HIbxR9ng8HofwRtnj8Xgcwhtlj8fjcQal/j9J6S6a3vzx2gAAAABJRU5ErkJggg==;" vertex="1" parent="QlTkq8WYhFlpVvzBfxse-14">
          <mxGeometry width="48.81" height="45.94" as="geometry" />
        </mxCell>
        <mxCell id="QlTkq8WYhFlpVvzBfxse-18" value="" style="verticalLabelPosition=bottom;verticalAlign=top;html=1;shape=mxgraph.basic.flash" vertex="1" parent="QlTkq8WYhFlpVvzBfxse-14">
          <mxGeometry x="14.25" width="20" height="45.94" as="geometry" />
        </mxCell>
        <mxCell id="QlTkq8WYhFlpVvzBfxse-17" value="&lt;h1&gt;Electroconductivity across the honeycomb&amp;nbsp;&lt;/h1&gt;&lt;div&gt;Measuring the electroconductivity across the honeycomb can provide information about honey quantity and quality.&lt;/div&gt;" style="text;html=1;strokeColor=none;fillColor=none;spacing=5;spacingTop=-20;whiteSpace=wrap;overflow=hidden;rounded=0;" vertex="1" parent="1">
          <mxGeometry x="360" y="320" width="240" height="180" as="geometry" />
        </mxCell>
        <mxCell id="QlTkq8WYhFlpVvzBfxse-19" value="Humidity Sensor" style="rounded=1;whiteSpace=wrap;html=1;" vertex="1" parent="1">
          <mxGeometry x="600" y="252.97" width="110" height="40" as="geometry" />
        </mxCell>
        <mxCell id="QlTkq8WYhFlpVvzBfxse-20" value="&lt;h1&gt;Ambient Sensors&amp;nbsp;&lt;/h1&gt;&lt;div&gt;Environmental information can give context info about the hive&amp;nbsp; that can be usefull for data analysis and monitoring systems.&lt;/div&gt;&lt;div&gt;Humidity sensor gives relative humidity in %, and light sensor provides directly incided light in Lux.&lt;/div&gt;" style="text;html=1;strokeColor=none;fillColor=none;spacing=5;spacingTop=-20;whiteSpace=wrap;overflow=hidden;rounded=0;" vertex="1" parent="1">
          <mxGeometry x="614" y="320" width="240" height="180" as="geometry" />
        </mxCell>
        <mxCell id="QlTkq8WYhFlpVvzBfxse-27" style="edgeStyle=orthogonalEdgeStyle;rounded=0;orthogonalLoop=1;jettySize=auto;html=1;" edge="1" parent="1" source="QlTkq8WYhFlpVvzBfxse-21" target="QlTkq8WYhFlpVvzBfxse-3">
          <mxGeometry relative="1" as="geometry">
            <Array as="points">
              <mxPoint x="725" y="150" />
              <mxPoint x="861" y="150" />
            </Array>
          </mxGeometry>
        </mxCell>
        <mxCell id="QlTkq8WYhFlpVvzBfxse-21" value="Ambient sensors" style="rounded=1;whiteSpace=wrap;html=1;" vertex="1" parent="1">
          <mxGeometry x="670" y="190.00000000000003" width="110" height="40" as="geometry" />
        </mxCell>
        <mxCell id="QlTkq8WYhFlpVvzBfxse-22" value="Light sensor" style="rounded=1;whiteSpace=wrap;html=1;" vertex="1" parent="1">
          <mxGeometry x="740" y="253.00000000000003" width="110" height="40" as="geometry" />
        </mxCell>
        <mxCell id="QlTkq8WYhFlpVvzBfxse-28" style="edgeStyle=orthogonalEdgeStyle;rounded=0;orthogonalLoop=1;jettySize=auto;html=1;entryX=0.5;entryY=1;entryDx=0;entryDy=0;" edge="1" parent="1" source="QlTkq8WYhFlpVvzBfxse-23" target="QlTkq8WYhFlpVvzBfxse-3">
          <mxGeometry relative="1" as="geometry">
            <Array as="points">
              <mxPoint x="975" y="150" />
              <mxPoint x="861" y="150" />
            </Array>
          </mxGeometry>
        </mxCell>
        <mxCell id="QlTkq8WYhFlpVvzBfxse-23" value="Wheight Sensor" style="rounded=1;whiteSpace=wrap;html=1;" vertex="1" parent="1">
          <mxGeometry x="920" y="190.00000000000003" width="110" height="40" as="geometry" />
        </mxCell>
        <mxCell id="QlTkq8WYhFlpVvzBfxse-24" value="&lt;h1&gt;Honey Production stamation&amp;nbsp;&lt;/h1&gt;&lt;div&gt;Measuring the weight of each of the honeycombs can provide information about how many kilograms of honey are the bees producing.&lt;/div&gt;" style="text;html=1;strokeColor=none;fillColor=none;spacing=5;spacingTop=-20;whiteSpace=wrap;overflow=hidden;rounded=0;" vertex="1" parent="1">
          <mxGeometry x="890" y="250" width="240" height="180" as="geometry" />
        </mxCell>
        <mxCell id="QlTkq8WYhFlpVvzBfxse-34" style="edgeStyle=orthogonalEdgeStyle;rounded=0;orthogonalLoop=1;jettySize=auto;html=1;" edge="1" parent="1" source="QlTkq8WYhFlpVvzBfxse-29">
          <mxGeometry relative="1" as="geometry">
            <mxPoint x="860" y="110" as="targetPoint" />
            <Array as="points">
              <mxPoint x="1241" y="150" />
              <mxPoint x="861" y="150" />
              <mxPoint x="861" y="110" />
            </Array>
          </mxGeometry>
        </mxCell>
        <mxCell id="QlTkq8WYhFlpVvzBfxse-29" value="Computer Vision" style="rounded=1;whiteSpace=wrap;html=1;" vertex="1" parent="1">
          <mxGeometry x="1186" y="190.00000000000003" width="110" height="40" as="geometry" />
        </mxCell>
        <mxCell id="QlTkq8WYhFlpVvzBfxse-30" value="&lt;h1&gt;Bee Traffic Analysis&amp;nbsp;&lt;/h1&gt;&lt;div&gt;Controlling how many bees goes inside/outside the coney comb can provide information aboutthe honeycomb life status and bee activy patterns.&amp;nbsp;&lt;/div&gt;" style="text;html=1;strokeColor=none;fillColor=none;spacing=5;spacingTop=-20;whiteSpace=wrap;overflow=hidden;rounded=0;" vertex="1" parent="1">
          <mxGeometry x="1160" y="250" width="240" height="180" as="geometry" />
        </mxCell>
        <mxCell id="QlTkq8WYhFlpVvzBfxse-35" style="edgeStyle=orthogonalEdgeStyle;rounded=0;orthogonalLoop=1;jettySize=auto;html=1;entryX=0.5;entryY=1;entryDx=0;entryDy=0;" edge="1" parent="1" source="QlTkq8WYhFlpVvzBfxse-31" target="QlTkq8WYhFlpVvzBfxse-3">
          <mxGeometry relative="1" as="geometry">
            <Array as="points">
              <mxPoint x="1495" y="150" />
              <mxPoint x="861" y="150" />
            </Array>
          </mxGeometry>
        </mxCell>
        <mxCell id="QlTkq8WYhFlpVvzBfxse-31" value="Microphone" style="rounded=1;whiteSpace=wrap;html=1;" vertex="1" parent="1">
          <mxGeometry x="1440" y="190.00000000000003" width="110" height="40" as="geometry" />
        </mxCell>
        <mxCell id="QlTkq8WYhFlpVvzBfxse-33" value="&lt;h1&gt;Activity Monitoritation&amp;nbsp;&lt;/h1&gt;&lt;div&gt;Monitoring the sound power emitted by the honeycomb (dB) and its tone (Hz) can give information of bee activity time frames and behaivoural patterns.&lt;/div&gt;" style="text;html=1;strokeColor=none;fillColor=none;spacing=5;spacingTop=-20;whiteSpace=wrap;overflow=hidden;rounded=0;" vertex="1" parent="1">
          <mxGeometry x="1414" y="250" width="240" height="180" as="geometry" />
        </mxCell>
        <mxCell id="QlTkq8WYhFlpVvzBfxse-36" value="Honeycomb Instrumentalitation" style="whiteSpace=wrap;html=1;aspect=fixed;fontStyle=1;verticalAlign=top;fontSize=22;" vertex="1" parent="1">
          <mxGeometry x="340" y="560" width="230" height="230" as="geometry" />
        </mxCell>
        <mxCell id="QlTkq8WYhFlpVvzBfxse-38" value="&lt;font style=&quot;font-size: 24px;&quot;&gt;&lt;b&gt;1&lt;/b&gt;&lt;/font&gt;" style="ellipse;whiteSpace=wrap;html=1;aspect=fixed;" vertex="1" parent="1">
          <mxGeometry x="330" y="550" width="45" height="45" as="geometry" />
        </mxCell>
        <mxCell id="QlTkq8WYhFlpVvzBfxse-39" value="&lt;font style=&quot;font-size: 18px;&quot;&gt;Design and implementation of a PCB containig various sensor drivers for the sistems above and supporting wireless comunnication and 12v power supply.&lt;/font&gt;" style="text;html=1;strokeColor=none;fillColor=none;align=center;verticalAlign=middle;whiteSpace=wrap;rounded=0;" vertex="1" parent="1">
          <mxGeometry x="344" y="630" width="226" height="160" as="geometry" />
        </mxCell>
        <mxCell id="QlTkq8WYhFlpVvzBfxse-40" value="SCADA system" style="whiteSpace=wrap;html=1;aspect=fixed;fontStyle=1;verticalAlign=top;fontSize=22;" vertex="1" parent="1">
          <mxGeometry x="760" y="550" width="300" height="300" as="geometry" />
        </mxCell>
        <mxCell id="QlTkq8WYhFlpVvzBfxse-41" value="&lt;font style=&quot;font-size: 24px;&quot;&gt;&lt;b&gt;2&lt;/b&gt;&lt;/font&gt;" style="ellipse;whiteSpace=wrap;html=1;aspect=fixed;" vertex="1" parent="1">
          <mxGeometry x="750" y="540" width="45" height="45" as="geometry" />
        </mxCell>
        <mxCell id="QlTkq8WYhFlpVvzBfxse-42" value="&lt;font style=&quot;font-size: 18px;&quot;&gt;Design and implementation of a software system capable of supervising all deployed devices and data logged in real time all an integrated dashboard. The system shoulld be also capable of exporting all sensor data in .csv format and call Remote Call Procedures (RPC). All the collected data should be saves in a time series data base.&lt;/font&gt;" style="text;html=1;strokeColor=none;fillColor=none;align=left;verticalAlign=middle;whiteSpace=wrap;rounded=0;" vertex="1" parent="1">
          <mxGeometry x="764" y="585" width="286" height="255" as="geometry" />
        </mxCell>
        <mxCell id="QlTkq8WYhFlpVvzBfxse-43" value="Data Analysis" style="whiteSpace=wrap;html=1;aspect=fixed;fontStyle=1;verticalAlign=top;fontSize=22;" vertex="1" parent="1">
          <mxGeometry x="1230" y="550" width="280" height="280" as="geometry" />
        </mxCell>
        <mxCell id="QlTkq8WYhFlpVvzBfxse-44" value="&lt;font style=&quot;font-size: 24px;&quot;&gt;&lt;b&gt;3&lt;/b&gt;&lt;/font&gt;" style="ellipse;whiteSpace=wrap;html=1;aspect=fixed;" vertex="1" parent="1">
          <mxGeometry x="1220" y="540" width="45" height="45" as="geometry" />
        </mxCell>
        <mxCell id="QlTkq8WYhFlpVvzBfxse-45" value="&lt;span style=&quot;font-size: 18px;&quot;&gt;All the collected data should be processed and analyzed using computer vision, data science and deep learning tecniques. Searching relationship between diferent collected data can help to privide suefull information for improving the honeycomb life quality.&lt;/span&gt;" style="text;html=1;strokeColor=none;fillColor=none;align=left;verticalAlign=middle;whiteSpace=wrap;rounded=0;" vertex="1" parent="1">
          <mxGeometry x="1234" y="600" width="276" height="220" as="geometry" />
        </mxCell>
      </root>
    </mxGraphModel>
  </diagram>
</mxfile>
